<?xml version="1.0" standalone="no"?>
<!DOCTYPE svg PUBLIC "-//W3C//DTD SVG 20010904//EN"
 "http://www.w3.org/TR/2001/REC-SVG-20010904/DTD/svg10.dtd">
<svg version="1.0" xmlns="http://www.w3.org/2000/svg"
 width="1757.000000pt" height="734.000000pt" viewBox="0 0 1757.000000 734.000000"
 preserveAspectRatio="xMidYMid meet">

<g transform="translate(0.000000,734.000000) scale(0.100000,-0.100000)"
fill="#000000" stroke="none">
<path d="M905 7251 c-547 -6 -550 -6 -600 -29 -69 -32 -111 -76 -136 -141 -21
-56 -22 -67 -32 -1396 -7 -903 -7 -1599 0 -2135 10 -763 11 -797 30 -841 26
-59 84 -115 153 -148 l55 -26 625 -8 c344 -4 929 -6 1300 -4 607 3 680 5 728
21 68 22 133 81 161 146 21 48 22 71 31 617 5 313 10 841 10 1175 l0 608 28
-5 c15 -3 155 -16 312 -30 157 -15 295 -28 308 -31 33 -7 31 -51 -3 -60 -32
-8 -32 -24 0 -24 l25 0 2 -1017 3 -1018 22 -41 c24 -45 84 -103 135 -131 30
-17 68 -18 498 -18 460 0 465 0 506 22 74 39 120 112 143 225 8 38 14 363 20
1022 4 531 10 969 13 972 5 4 338 -41 456 -62 l32 -6 0 -470 c0 -442 -1 -469
-17 -464 -69 19 -438 86 -451 81 -29 -11 2 -20 240 -71 l231 -49 -7 -600 c-8
-728 -7 -736 97 -832 53 -49 89 -61 217 -73 114 -11 1848 -12 1972 -1 71 6 96
13 135 37 51 31 104 100 125 162 9 28 14 232 18 825 l5 789 129 59 c70 32 137
61 147 64 18 6 19 -16 21 -678 l3 -684 30 -49 c37 -59 120 -119 188 -134 28
-6 181 -10 363 -10 l316 0 -6 -28 c-3 -15 -24 -142 -46 -282 -22 -140 -42
-266 -44 -280 -24 -148 -40 -237 -46 -248 -4 -7 -12 20 -20 60 -19 112 -31
126 -27 33 4 -86 34 -202 47 -188 13 12 130 216 130 225 0 22 -20 1 -59 -62
-24 -38 -45 -70 -46 -70 -3 0 32 208 88 530 l53 305 2564 5 c1998 4 2573 8
2600 17 83 29 158 115 181 206 11 42 14 419 14 1982 0 1802 -1 1934 -17 1998
-10 37 -27 85 -37 105 -26 52 -88 105 -147 128 -48 18 -129 19 -2954 19
l-2905 0 -63 -24 c-67 -25 -109 -65 -140 -129 -16 -34 -17 -109 -22 -972 l-5
-936 -148 55 -147 54 0 850 1 851 -26 52 c-31 63 -99 119 -170 139 -42 12
-216 14 -1110 12 l-1061 -3 -46 -27 c-59 -34 -102 -87 -131 -157 -21 -54 -22
-67 -25 -524 l-3 -469 -72 6 c-40 4 -133 9 -207 13 -125 7 -134 6 -121 -9 11
-14 33 -17 121 -17 59 0 148 -3 198 -6 l92 -7 0 -539 0 -540 -27 6 c-16 3
-113 17 -218 31 -104 14 -202 28 -216 31 l-26 5 -7 837 c-9 997 -15 1172 -40
1222 -25 49 -74 98 -121 123 -49 25 -209 36 -540 36 -328 0 -443 -10 -498 -42
-50 -30 -85 -72 -113 -137 -18 -43 -19 -82 -22 -976 l-2 -932 -23 5 -22 6 23
-25 c32 -35 29 -59 -5 -53 -16 3 -156 14 -313 25 -157 12 -294 23 -306 25
l-21 5 -7 807 c-4 445 -11 883 -15 975 -8 159 -9 169 -38 220 -36 64 -105 110
-190 126 -73 13 -1315 21 -2078 13z m2136 -54 c58 -28 92 -66 126 -142 17 -38
18 -94 16 -989 -2 -522 -4 -950 -5 -952 -2 -1 -163 13 -358 31 -301 29 -357
32 -369 20 -19 -18 -11 -19 388 -49 183 -14 336 -28 339 -31 3 -3 6 -526 6
-1163 l1 -1157 -23 -50 c-28 -61 -64 -100 -116 -127 -80 -41 -133 -44 -652
-36 -271 4 -813 4 -1205 0 -393 -4 -732 -4 -754 0 -71 12 -155 49 -190 83 -20
21 -42 59 -56 102 l-24 68 0 1605 0 1605 25 3 c45 6 88 23 94 37 8 21 -37 69
-85 90 l-41 19 4 426 c4 414 5 426 27 475 27 60 54 91 104 116 85 44 83 44
1419 44 l1273 0 56 -28z m11622 15 c82 -28 156 -126 175 -232 6 -35 9 -766 8
-2005 -1 -1869 -2 -1952 -19 -1997 -23 -57 -88 -119 -155 -145 -45 -17 -156
-18 -2600 -21 l-2554 -2 6 27 c4 16 49 275 101 577 84 488 93 550 79 563 -8 9
-17 14 -19 11 -2 -2 -46 -267 -97 -588 l-94 -585 -319 -3 c-265 -2 -328 0
-373 13 -68 20 -132 78 -163 148 l-24 52 -3 550 c-1 303 1 605 5 673 l8 123
255 115 c140 64 271 122 290 130 l35 15 -49 -50 c-78 -79 -44 -73 37 6 40 39
82 76 95 82 27 14 31 55 5 47 -10 -3 -69 -8 -131 -12 -62 -4 -115 -11 -119
-17 -4 -7 26 -8 91 -4 54 3 96 4 94 1 -3 -2 -139 -65 -304 -139 l-299 -134 -3
186 c-1 102 -1 187 1 189 2 2 98 6 213 9 223 6 218 8 107 -41 -98 -43 -54 -41
53 2 58 23 114 44 125 47 10 3 19 10 19 15 0 11 -207 82 -240 82 -38 0 -12
-16 57 -36 l68 -19 -90 -6 c-49 -4 -141 -7 -202 -8 l-113 -1 0 156 c0 86 4
154 9 152 4 -1 144 -55 310 -118 l301 -115 -90 -3 c-93 -3 -118 -15 -52 -26
88 -14 232 -3 232 18 0 7 -15 19 -33 28 -19 9 -66 44 -105 78 -82 71 -95 69
-24 -3 l47 -48 -40 15 c-22 9 -154 58 -293 110 -139 51 -255 96 -258 98 -2 3
-7 410 -11 904 -4 681 -3 913 6 956 22 102 90 165 202 187 24 5 1340 8 2924 7
2347 -1 2887 -4 2918 -14z m-9657 -47 c97 -28 151 -82 180 -183 15 -49 15
-155 9 -1020 l-8 -964 -46 6 c-118 17 -166 19 -155 7 6 -7 53 -18 104 -26 51
-8 93 -15 95 -17 1 -2 4 -457 6 -1013 l4 -1010 -24 -52 c-32 -71 -95 -128
-165 -148 -47 -14 -111 -16 -463 -12 -283 2 -419 7 -444 15 -89 30 -134 85
-164 197 -13 51 -15 187 -15 1031 l0 972 33 7 c17 3 60 16 95 27 45 16 62 27
62 40 0 13 -8 18 -25 18 -14 0 -57 16 -95 35 l-70 35 0 919 c0 994 -1 968 54
1051 43 65 101 91 219 100 163 13 752 2 813 -15z m3089 -4 c62 -16 108 -54
140 -112 l30 -54 -4 -840 c-2 -462 -5 -842 -6 -843 -2 -2 -196 68 -431 157
-377 141 -453 167 -432 146 4 -4 560 -220 816 -317 l52 -19 0 -230 0 -229 -70
0 c-174 0 -976 -22 -980 -27 -3 -3 1 -8 8 -10 6 -3 9 -9 6 -15 -7 -11 376 -7
844 8 l192 7 0 -269 0 -269 -556 -250 c-306 -137 -558 -253 -561 -258 -22 -35
88 8 568 223 297 134 543 240 547 236 4 -4 7 -355 7 -779 l0 -772 -24 -53
c-31 -68 -98 -128 -165 -147 -43 -12 -216 -15 -1066 -17 -957 -2 -1018 -2
-1075 16 -80 24 -143 87 -170 171 -19 57 -20 86 -16 675 2 338 4 616 5 617 0
1 80 -15 176 -35 147 -31 169 -38 142 -44 -18 -4 -47 -12 -64 -16 -64 -15 -11
-19 92 -5 123 15 150 21 150 31 -1 9 -105 84 -147 106 -101 51 -111 36 -16
-25 37 -24 60 -45 52 -46 -7 -1 -97 15 -199 35 l-185 38 -3 470 -2 470 244
-35 c134 -20 247 -39 250 -42 4 -3 -21 -12 -54 -19 -33 -7 -60 -17 -60 -21 0
-12 -4 -12 107 12 57 12 109 18 129 14 40 -7 44 5 12 35 -32 29 -196 112 -216
108 -9 -2 22 -22 72 -46 49 -23 87 -45 84 -48 -5 -4 -490 59 -545 71 l-23 5 0
541 0 541 68 -6 c37 -3 110 -9 162 -12 l95 -7 -90 -31 c-63 -21 -83 -32 -66
-34 26 -4 232 57 243 72 9 14 0 26 -21 26 -10 0 -62 18 -116 40 -55 22 -104
39 -110 36 -5 -2 24 -20 65 -41 l75 -37 -150 7 c-82 3 -151 8 -153 10 -2 2 -4
207 -5 457 -2 403 0 459 15 508 29 94 88 149 185 174 60 15 2092 13 2148 -3z
m-7913 -1076 c2 -39 -1 -55 -9 -55 -9 0 -13 18 -13 55 0 71 17 71 22 0z m60
15 c32 -29 32 -31 14 -45 -41 -31 -65 -11 -66 53 0 30 13 28 52 -8z m4975
-897 c-1 -120 -2 -22 -2 217 0 239 1 337 2 218 2 -120 2 -316 0 -435z m-2010
45 c-1 -79 -3 -15 -3 142 0 157 2 221 3 143 2 -79 2 -207 0 -285z m5243 -42
l135 -52 3 -160 2 -161 -141 -6 c-78 -4 -145 -4 -150 -1 -5 3 -9 102 -9 220 0
165 3 214 13 213 6 0 73 -24 147 -53z m-5243 -794 c-1 -125 -2 -22 -2 228 0
250 1 353 2 227 2 -125 2 -329 0 -455z m743 648 c12 -8 11 -10 -7 -10 -13 0
-23 5 -23 10 0 13 11 13 30 0z m46 -47 l49 -6 -55 -13 c-72 -17 -70 -17 -70 6
0 22 5 23 76 13z m1221 -360 c-1 -59 -3 -13 -3 102 0 116 2 164 3 108 2 -56 2
-151 0 -210z m3373 -61 l0 -198 -139 -62 c-76 -34 -144 -62 -150 -62 -8 0 -11
73 -11 255 l0 254 73 4 c39 1 107 4 150 5 l77 2 0 -198z"/>
<path d="M748 6975 c-51 -27 -88 -71 -88 -105 0 -67 69 -130 142 -130 24 0 50
-5 58 -10 11 -8 7 -9 -15 -5 -26 6 -25 4 10 -13 98 -47 201 -217 229 -379 3
-18 2 -32 -2 -31 -4 1 -19 -6 -35 -16 -35 -24 -154 -31 -350 -21 l-147 7 0 33
c0 18 7 68 15 109 8 42 11 84 8 93 -5 11 -3 14 6 8 10 -6 11 -2 6 15 -4 13 -3
20 2 17 5 -4 17 9 26 27 25 54 78 107 132 133 31 16 39 22 22 18 -19 -4 -26
-2 -22 5 3 5 2 10 -3 10 -18 0 -145 -143 -163 -184 -17 -40 -56 -292 -46 -303
3 -2 101 -5 219 -6 307 -2 355 14 346 113 -8 79 -99 251 -173 326 l-60 61 28
13 c60 26 77 125 30 181 -28 32 -78 59 -110 59 -10 -1 -39 -12 -65 -25z m126
-10 c71 -34 86 -113 32 -172 -32 -35 -38 -37 -86 -35 -63 3 -105 23 -131 65
-34 55 -2 114 77 142 51 18 69 18 108 0z m-134 -249 c0 -2 -7 -7 -16 -10 -8
-3 -12 -2 -9 4 6 10 25 14 25 6z m166 -18 l19 -23 -25 20 c-14 11 -27 21 -29
22 -2 2 0 3 6 3 5 0 18 -10 29 -22z"/>
<path d="M951 6108 c0 -49 2 -88 7 -88 4 0 6 28 4 62 -5 107 -9 117 -11 26z"/>
<path d="M1000 6105 c0 -47 3 -85 8 -85 4 0 8 38 10 85 1 52 -2 85 -8 85 -6 0
-10 -34 -10 -85z"/>
<path d="M1245 6118 c-8 -60 -19 -78 -47 -78 -16 0 -17 3 -8 21 7 12 18 18 26
15 8 -3 14 -1 14 4 0 15 -36 12 -50 -5 -30 -37 14 -72 51 -40 17 16 19 16 25
1 3 -9 10 -16 15 -16 5 0 4 11 -1 25 -5 13 -6 47 -3 75 4 32 2 50 -5 50 -5 0
-13 -24 -17 -52z"/>
<path d="M424 6096 c-22 -17 -22 -16 31 -45 l40 -22 -38 4 c-23 2 -36 -1 -34
-7 2 -6 21 -11 43 -11 45 0 54 22 16 41 -39 19 -49 34 -24 34 12 0 22 5 22 10
0 15 -33 12 -56 -4z"/>
<path d="M672 6097 c-17 -20 -25 -64 -13 -71 7 -5 11 2 11 17 0 31 20 48 48
40 16 -4 22 -13 22 -34 0 -16 5 -29 10 -29 6 0 10 14 10 30 0 17 6 33 14 36
22 8 54 -13 58 -38 4 -33 57 -37 83 -8 20 22 20 22 -4 41 -25 21 -48 24 -70
10 -9 -6 -22 -4 -36 5 -22 14 -55 10 -55 -7 0 -5 -13 -3 -30 6 -35 18 -35 18
-48 2z m234 -29 c4 -6 -1 -17 -11 -25 -22 -15 -25 -16 -44 -4 -12 8 -12 12 -2
25 16 19 47 21 57 4z"/>
<path d="M1416 6094 c-17 -17 -22 -74 -7 -74 6 0 11 15 13 33 3 29 6 32 33 30
28 -2 29 -1 11 12 -25 19 -31 19 -50 -1z"/>
<path d="M321 6079 c-25 -27 -27 -52 -5 -69 19 -17 71 -17 87 -1 10 11 6 12
-21 6 -21 -4 -38 -2 -47 5 -23 19 -18 28 18 32 24 2 32 8 32 23 0 29 -38 31
-64 4z m44 -9 c-3 -5 -10 -10 -16 -10 -5 0 -9 5 -9 10 0 6 7 10 16 10 8 0 12
-4 9 -10z"/>
<path d="M1300 6085 c-27 -33 8 -73 54 -61 35 9 43 32 21 56 -21 23 -58 26
-75 5z m68 -26 c2 -10 -6 -19 -20 -22 -27 -8 -43 5 -34 28 8 21 50 16 54 -6z"/>
<path d="M530 6069 c-7 -11 -9 -27 -6 -35 7 -19 40 -18 56 1 12 14 15 14 30 0
9 -8 20 -15 24 -15 8 0 -24 52 -39 62 -20 15 -54 8 -65 -13z m50 -9 c-12 -22
-40 -27 -40 -7 0 19 10 27 32 27 16 0 17 -3 8 -20z"/>
<path d="M1050 6069 c-7 -11 -9 -27 -6 -35 7 -19 40 -18 56 1 12 14 15 14 30
0 9 -8 20 -15 24 -15 8 0 -24 52 -39 62 -20 15 -54 8 -65 -13z m50 -9 c-12
-22 -40 -27 -40 -7 0 19 10 27 32 27 16 0 17 -3 8 -20z"/>
<path d="M728 5585 c-105 -54 -104 -178 1 -222 l36 -15 -35 -18 c-45 -23 -122
-105 -150 -159 -35 -69 -62 -193 -51 -238 l9 -38 1 35 c2 62 30 189 52 232 29
57 101 131 148 153 28 12 50 15 77 10 52 -9 138 -99 189 -197 22 -42 42 -75
44 -73 6 6 -79 156 -111 198 -16 20 -25 37 -20 37 17 0 70 -70 104 -137 18
-34 34 -60 36 -58 7 7 -60 124 -94 164 -19 21 -57 51 -86 65 -29 14 -44 26
-34 26 28 0 84 62 91 103 9 46 -18 105 -60 128 -51 29 -95 30 -147 4z m163
-34 c24 -24 29 -38 29 -76 0 -40 -5 -52 -35 -82 -34 -34 -38 -35 -89 -30 -96
10 -128 37 -128 112 0 70 45 104 140 105 46 0 58 -4 83 -29z m19 -256 c0 -10
-16 -4 -40 16 l-25 20 33 -16 c17 -8 32 -18 32 -20z"/>
<path d="M1062 5075 c0 -5 6 -26 13 -45 7 -19 14 -28 14 -20 0 8 -6 29 -14 45
-7 17 -13 26 -13 20z"/>
<path d="M1056 5025 c4 -11 9 -43 11 -72 5 -47 3 -52 -23 -70 -26 -16 -49 -18
-244 -16 -246 2 -273 7 -281 49 l-5 29 -6 -35 c-5 -32 15 -85 23 -61 3 6 62 7
172 1 96 -5 205 -5 255 0 79 8 90 12 115 40 20 23 27 40 26 68 l-2 37 -7 -40
-7 -40 -2 35 c-1 19 -9 49 -17 65 -8 17 -11 21 -8 10z"/>
<path d="M488 4726 c-9 -18 -30 -49 -47 -69 -34 -38 -42 -60 -13 -35 9 9 29
18 44 20 20 4 28 0 33 -16 7 -21 7 -21 13 2 9 28 3 132 -7 132 -4 0 -15 -15
-23 -34z m12 -46 c0 -11 -7 -20 -15 -20 -18 0 -19 12 -3 28 16 16 18 15 18 -8z"/>
<path d="M293 4720 c-45 -56 -18 -109 48 -95 21 5 31 2 35 -8 3 -9 13 -18 21
-21 14 -6 14 -3 -1 18 -10 17 -14 35 -10 56 5 24 2 36 -16 55 -30 32 -50 31
-77 -5z m65 -2 c18 -18 15 -49 -3 -42 -10 4 -15 0 -15 -15 0 -25 -31 -29 -50
-6 -12 15 -8 28 19 57 19 20 33 22 49 6z"/>
<path d="M1050 4738 c0 -9 -9 -20 -20 -23 -11 -3 -20 -11 -20 -16 0 -6 9 -8
19 -4 17 5 20 0 23 -37 2 -30 8 -44 19 -46 21 -4 51 26 42 41 -5 8 -9 6 -11
-5 -6 -30 -29 -20 -35 15 -6 39 -2 47 24 47 10 0 19 5 19 11 0 6 -8 8 -19 4
-13 -4 -23 0 -30 12 -9 16 -10 16 -11 1z"/>
<path d="M695 4735 c-5 -2 -22 -6 -37 -9 -16 -4 -28 -11 -28 -17 0 -6 6 -9 13
-6 58 21 57 22 57 -32 0 -28 5 -51 10 -51 6 0 10 23 10 50 l0 50 35 0 c19 0
35 5 35 10 0 9 -71 13 -95 5z"/>
<path d="M924 4696 c-22 -17 -22 -16 31 -45 l40 -22 -38 4 c-23 2 -36 -1 -34
-7 2 -6 21 -11 43 -11 45 0 54 22 16 41 -39 19 -49 34 -24 34 12 0 22 5 22 10
0 15 -33 12 -56 -4z"/>
<path d="M1262 4697 c-17 -20 -25 -64 -13 -71 7 -5 11 2 11 17 0 32 20 48 51
41 l24 -5 -25 15 c-31 19 -35 19 -48 3z"/>
<path d="M821 4674 c-11 -15 -21 -30 -21 -33 0 -16 26 -41 45 -42 38 -4 65 1
65 11 0 5 -13 7 -30 4 -29 -6 -60 8 -60 27 0 4 15 9 33 11 24 2 32 8 32 23 0
31 -39 31 -64 -1z m49 -4 c-19 -13 -30 -13 -30 0 0 6 10 10 23 10 18 0 19 -2
7 -10z"/>
<path d="M1151 4674 c-11 -15 -21 -30 -21 -33 0 -16 26 -41 45 -42 38 -4 65 1
65 11 0 5 -13 7 -30 4 -29 -6 -60 8 -60 27 0 4 15 9 33 11 24 2 32 8 32 23 0
31 -39 31 -64 -1z m49 -4 c-19 -13 -30 -13 -30 0 0 6 10 10 23 10 18 0 19 -2
7 -10z"/>
<path d="M631 4059 c-50 -10 -67 -21 -87 -60 -30 -59 -13 -115 48 -154 l27
-17 -64 -60 c-87 -81 -118 -146 -148 -313 l-24 -130 151 -8 c195 -10 366 -3
406 18 57 30 50 107 -25 260 -51 105 -92 157 -153 196 l-44 28 32 16 c88 45
92 161 7 214 -36 22 -56 24 -126 10z m130 -30 c63 -44 59 -128 -9 -174 -47
-32 -93 -32 -147 0 -54 31 -72 70 -55 120 14 44 44 64 107 74 54 8 67 6 104
-20z m-101 -219 c-19 -4 -44 -10 -55 -14 -13 -5 -11 -2 5 8 14 8 39 15 55 14
29 0 29 0 -5 -8z m89 -30 c22 -10 55 -38 75 -61 45 -53 116 -196 123 -249 3
-22 10 -40 14 -40 17 0 9 -57 -9 -73 -10 -10 -21 -15 -23 -12 -3 2 -21 0 -40
-6 -40 -12 -245 -14 -380 -4 l-95 7 8 77 c18 170 46 248 115 312 74 71 140 86
212 49z"/>
<path d="M942 3372 c-11 -25 -11 -25 4 -10 9 9 15 21 13 27 -2 6 -10 -2 -17
-17z"/>
<path d="M936 3235 c-3 -9 -6 -31 -6 -48 -1 -37 -20 -67 -44 -67 -23 0 -20 16
7 35 l22 16 -25 -3 c-20 -2 -26 -9 -28 -35 -3 -29 0 -33 21 -33 14 0 30 7 37
15 11 14 14 13 24 -1 9 -12 12 -1 11 55 -2 73 -8 94 -19 66z"/>
<path d="M201 3228 c9 -8 18 -35 21 -65 5 -47 3 -53 -14 -53 -11 0 -17 -4 -14
-9 8 -12 107 6 124 23 21 20 6 53 -36 81 -42 27 -109 46 -81 23z m107 -76 c2
-16 -3 -23 -22 -28 -36 -9 -46 2 -46 48 l0 40 33 -19 c17 -10 33 -29 35 -41z"/>
<path d="M613 3215 c-7 -21 6 -33 17 -16 8 14 40 8 40 -7 0 -5 -7 -15 -15 -22
-12 -10 -15 -10 -16 1 -1 8 -5 -2 -8 -21 -10 -50 -2 -57 22 -18 l22 33 3 -27
c2 -16 8 -28 14 -28 7 0 8 13 5 34 -5 29 -2 37 20 51 28 19 25 32 -5 16 -15
-8 -23 -7 -32 4 -16 20 -59 19 -67 0z"/>
<path d="M346 3211 c-3 -5 1 -11 9 -15 8 -3 15 -1 15 4 0 13 -18 22 -24 11z"/>
<path d="M404 3176 c-22 -17 -22 -16 31 -45 l40 -22 -38 4 c-23 2 -36 -1 -34
-7 2 -6 21 -11 43 -11 45 0 54 22 16 41 -39 19 -49 34 -24 34 12 0 22 5 22 10
0 15 -33 12 -56 -4z"/>
<path d="M1096 3174 c-17 -17 -22 -74 -7 -74 6 0 11 15 13 33 3 29 6 32 33 30
28 -2 29 -1 11 12 -25 19 -31 19 -50 -1z"/>
<path d="M516 3158 c-22 -32 -20 -55 8 -73 25 -17 70 -12 83 8 4 6 -4 8 -21 3
-35 -9 -66 1 -66 20 0 9 10 14 29 14 28 0 47 22 35 41 -10 17 -53 9 -68 -13z
m46 -10 c-9 -9 -15 -9 -24 0 -9 9 -7 12 12 12 19 0 21 -3 12 -12z"/>
<path d="M986 3167 c-40 -29 2 -79 51 -61 34 11 42 40 16 59 -23 18 -44 19
-67 2z m62 -29 c4 -19 -35 -35 -50 -20 -6 6 -8 18 -4 27 8 21 50 16 54 -7z"/>
<path d="M736 3151 c-32 -35 0 -64 46 -40 14 8 23 8 31 0 6 -6 17 -11 24 -11
9 0 4 13 -14 35 -31 39 -61 45 -87 16z m52 -3 c-6 -16 -36 -34 -44 -25 -9 9
15 37 33 37 8 0 13 -5 11 -12z"/>
<path d="M350 3143 c0 -10 5 -25 10 -33 7 -11 10 -7 10 18 0 17 -4 32 -10 32
-5 0 -10 -8 -10 -17z"/>
<path d="M9210 6939 c-14 -6 -39 -24 -56 -40 -31 -30 -31 -30 -61 -13 -29 17
-31 17 -64 -2 -30 -18 -34 -25 -33 -62 1 -36 -3 -42 -27 -52 -14 -6 -40 -25
-55 -41 -24 -25 -29 -39 -28 -75 1 -51 28 -95 63 -104 12 -3 123 -3 247 0 222
5 226 5 245 29 32 39 24 69 -31 120 -48 45 -63 82 -40 96 25 15 9 59 -39 106
-50 51 -72 57 -121 38z m101 -46 c39 -35 41 -40 36 -83 -6 -53 2 -71 55 -126
31 -32 39 -48 36 -70 -5 -46 -63 -56 -292 -50 -179 5 -190 7 -215 28 l-26 23
24 -27 c14 -16 20 -28 14 -28 -21 0 -36 31 -40 83 -4 46 -1 55 20 75 13 13 37
27 53 31 26 7 29 12 29 52 0 66 7 72 75 64 53 -6 59 -5 77 19 44 56 99 59 154
9z m-221 -13 c18 -12 2 -12 -25 0 -13 6 -15 9 -5 9 8 0 22 -4 30 -9z m277 -67
c-3 -10 -5 -4 -5 12 0 17 2 24 5 18 2 -7 2 -21 0 -30z"/>
<path d="M12383 6790 c-20 -11 -33 -28 -33 -39 0 -21 -25 -31 -130 -51 -40 -8
-57 -7 -68 2 -18 16 -58 11 -89 -9 -30 -20 -31 -70 -2 -107 21 -27 56 -34 88
-16 14 7 23 4 41 -15 22 -23 22 -25 6 -51 -14 -20 -23 -24 -39 -19 -57 18 -66
17 -91 -8 -42 -42 -32 -105 21 -125 38 -14 60 -12 79 9 15 17 20 16 92 -17 49
-22 87 -48 106 -71 27 -32 33 -35 70 -30 45 6 66 28 66 68 0 21 14 37 75 83
72 54 95 78 56 57 -10 -6 -45 -30 -77 -55 -59 -44 -59 -44 -80 -25 -21 20 -79
26 -89 9 -11 -17 -22 -11 -55 30 l-32 40 28 10 c21 8 35 7 60 -5 17 -8 41 -15
51 -15 21 0 63 39 63 58 0 8 23 12 70 12 51 0 70 -4 70 -13 0 -7 9 -23 20 -35
28 -30 80 -29 108 1 47 50 9 129 -62 129 -32 0 -50 10 -116 65 -43 36 -84 78
-90 94 -12 29 -49 59 -72 59 -7 0 -28 -9 -45 -20z m87 -20 c27 -27 25 -54 -5
-85 -31 -30 -42 -31 -75 -6 -17 14 -25 30 -25 55 -1 20 0 34 3 31 3 -2 14 2
26 10 28 20 52 19 76 -5z m-147 -132 l-41 -41 -48 30 c-26 16 -49 33 -51 39
-2 5 34 19 79 30 80 19 83 19 92 1 8 -14 1 -26 -31 -59z m297 -23 c32 -28 34
-33 25 -63 -8 -27 -14 -32 -40 -32 -61 0 -104 12 -110 31 -3 10 -19 25 -35 33
-26 13 -33 12 -69 -6 -38 -19 -41 -19 -66 -2 l-26 17 39 40 c35 34 42 37 59
26 27 -16 69 -4 89 26 l16 25 42 -32 c22 -18 57 -46 76 -63z m-461 54 c28 -50
-11 -108 -64 -95 -26 7 -50 55 -41 84 7 22 43 42 71 39 10 -1 26 -14 34 -28z
m78 -60 l34 -21 -22 -24 -23 -25 -24 25 c-17 17 -22 30 -17 45 8 26 10 26 52
0z m84 -46 c22 -13 29 -25 29 -49 0 -49 -57 -62 -91 -21 -24 29 -24 36 3 64
26 28 23 27 59 6z m151 1 c3 -3 9 -18 13 -35 9 -40 -16 -69 -60 -69 -40 0 -55
16 -55 56 0 51 52 75 102 48z m280 -1 c13 -15 33 -91 20 -78 -2 2 -12 -5 -22
-17 -15 -19 -22 -20 -51 -12 -38 11 -56 45 -45 87 9 36 72 49 98 20z m-489
-104 c-5 -3 -22 -11 -40 -17 -42 -14 -53 11 -21 45 l22 23 23 -22 c13 -12 20
-25 16 -29z m-112 11 c23 -13 25 -57 3 -88 -32 -46 -113 -9 -99 46 4 15 11 33
17 39 13 16 52 17 79 3z m173 -74 c22 -28 34 -50 30 -60 -3 -9 -7 -16 -9 -16
-17 0 -155 75 -155 84 0 13 43 33 76 35 14 1 34 -15 58 -43z m133 -24 c6 -4
17 -20 22 -35 14 -35 0 -64 -36 -78 -48 -18 -97 36 -73 81 16 31 63 48 87 32z"/>
<path d="M10330 6769 c-35 -14 -60 -39 -60 -60 0 -13 -13 -20 -57 -29 -32 -6
-72 -16 -90 -21 -24 -8 -38 -7 -55 4 -13 7 -29 13 -35 12 -7 -2 -17 -3 -23 -4
-19 -2 -50 -46 -50 -71 0 -55 82 -104 116 -70 7 7 19 1 37 -18 l27 -28 -25
-24 c-19 -18 -28 -21 -37 -12 -19 19 -63 14 -92 -9 -51 -40 -23 -112 51 -134
15 -4 28 0 42 14 l21 21 69 -35 c37 -19 73 -35 78 -35 6 0 23 -16 37 -35 20
-26 34 -35 57 -35 37 0 79 39 79 74 0 18 17 36 73 77 39 30 74 57 77 61 3 4
12 3 20 -2 28 -18 70 -11 97 16 20 20 24 32 19 57 -9 46 -51 80 -89 73 -26 -5
-39 3 -110 64 -45 39 -86 83 -93 98 -12 29 -41 62 -52 61 -4 0 -18 -5 -32 -10z
m65 -43 c44 -67 -45 -132 -94 -70 -26 33 -26 45 -1 72 28 30 75 29 95 -2z
m-116 -63 c8 -15 2 -26 -31 -60 l-41 -42 -47 24 c-74 37 -71 49 18 73 42 11
80 20 84 21 4 1 11 -7 17 -16z m238 -70 l61 -53 -15 -30 c-14 -28 -18 -30 -76
-30 -58 0 -63 2 -79 30 -25 44 -62 55 -98 30 -34 -24 -34 -24 -66 -3 l-25 16
37 38 c31 31 42 37 65 32 34 -6 85 12 93 34 7 18 7 18 103 -64z m-438 40 c27
-33 26 -46 -2 -79 -30 -34 -69 -28 -92 16 -16 31 -8 74 16 82 35 12 59 6 78
-19z m118 -85 c63 -36 73 -45 73 -69 0 -21 -7 -29 -32 -38 -29 -10 -35 -9 -57
14 l-25 24 22 24 c30 32 28 46 -3 17 l-26 -24 -25 26 c-19 18 -24 31 -19 47 3
11 9 21 13 21 3 0 39 -19 79 -42z m195 -39 c19 -25 19 -28 4 -58 -14 -26 -22
-31 -51 -31 -44 0 -71 34 -56 73 20 52 71 60 103 16z m282 9 c19 -27 21 -69 4
-86 -20 -20 -86 -15 -98 7 -17 32 -12 69 12 85 32 22 64 20 82 -6z m-520 -106
c-30 -13 -37 -13 -45 -1 -5 9 -1 21 13 36 l22 23 23 -22 24 -22 -37 -14z m407
36 c13 -24 13 -23 -92 -98 -56 -39 -57 -39 -74 -20 -20 22 -56 26 -87 9 -18
-10 -25 -6 -59 32 l-37 44 30 13 c25 11 33 11 47 -1 42 -36 94 -30 117 14 14
27 18 29 79 29 56 0 66 -3 76 -22z m-487 -19 c30 -24 32 -34 10 -77 -19 -38
-49 -42 -88 -11 -41 32 -30 82 24 102 24 9 26 8 54 -14z m165 -68 c70 -83 50
-99 -60 -46 -62 31 -76 42 -69 54 7 13 57 37 82 40 3 1 25 -21 47 -48z m139
-37 c26 -18 30 -75 6 -94 -20 -18 -73 -17 -85 1 -5 8 -8 30 -7 49 2 25 10 38
28 47 32 16 31 16 58 -3z"/>
<path d="M9083 6435 c0 -38 2 -53 4 -32 2 20 2 52 0 70 -2 17 -4 1 -4 -38z"/>
<path d="M9337 6473 c-4 -3 -7 -20 -7 -38 0 -30 -15 -55 -32 -55 -16 0 -8 29
10 33 13 4 11 5 -5 6 -18 1 -23 -4 -23 -24 0 -26 23 -35 35 -14 4 6 12 8 19 6
7 -3 12 12 13 44 2 50 1 54 -10 42z"/>
<path d="M8992 6448 c-31 -31 -2 -80 45 -77 13 1 11 3 -6 8 -37 10 -50 37 -28
58 15 16 19 16 27 3 5 -8 12 -11 15 -8 11 10 -4 28 -24 28 -9 0 -22 -5 -29
-12z"/>
<path d="M9121 6421 c-8 -5 -11 -16 -6 -30 8 -25 46 -28 66 -5 11 14 10 18 -6
30 -22 16 -34 17 -54 5z m48 -15 c10 -11 8 -16 -9 -21 -26 -8 -35 -1 -27 20 8
19 21 19 36 1z"/>
<path d="M9203 6400 c2 -21 7 -25 33 -25 27 -1 31 3 30 22 -1 24 -16 33 -16 9
0 -25 -30 -27 -40 -3 -10 22 -10 21 -7 -3z"/>
<path d="M12027 6113 c-3 -43 -1 -82 4 -87 5 -6 9 25 9 77 0 48 -2 87 -4 87
-2 0 -6 -35 -9 -77z"/>
<path d="M12545 6133 c-10 -69 -19 -88 -44 -91 -30 -5 -24 18 10 36 l24 13
-30 -3 c-26 -3 -30 -8 -33 -35 -3 -29 0 -33 21 -33 14 0 30 7 38 16 11 14 14
14 23 1 8 -10 11 5 13 60 1 77 -12 99 -22 36z"/>
<path d="M11518 6126 c-9 -18 -30 -49 -47 -69 -34 -38 -42 -60 -13 -35 9 9 29
18 44 20 20 4 28 0 33 -16 7 -21 7 -21 13 2 9 28 3 132 -7 132 -4 0 -15 -15
-23 -34z m12 -46 c0 -11 -7 -20 -15 -20 -18 0 -19 12 -3 28 16 16 18 15 18 -8z"/>
<path d="M10416 6128 c-9 -35 -7 -148 3 -148 5 0 9 38 10 85 1 87 -2 103 -13
63z"/>
<path d="M11363 6143 c-26 -5 -31 -23 -8 -23 13 0 15 -8 9 -37 -3 -21 -13 -44
-22 -50 -13 -11 -11 -13 19 -13 19 0 41 5 49 10 12 8 9 10 -14 10 -21 0 -27 4
-22 16 3 9 6 27 6 41 0 16 7 27 20 30 11 3 17 9 14 14 -5 9 -12 9 -51 2z"/>
<path d="M12066 6131 c-3 -5 1 -11 9 -15 8 -3 15 -1 15 4 0 13 -18 22 -24 11z"/>
<path d="M12220 6132 c0 -12 19 -26 26 -19 2 2 -2 10 -11 17 -9 8 -15 8 -15 2z"/>
<path d="M13350 6132 c0 -12 19 -26 26 -19 2 2 -2 10 -11 17 -9 8 -15 8 -15 2z"/>
<path d="M10815 6078 c-8 -60 -19 -78 -47 -78 -16 0 -17 3 -8 21 7 12 18 18
26 15 8 -3 14 -1 14 4 0 15 -36 12 -50 -5 -30 -37 14 -72 51 -40 17 16 19 16
25 1 3 -9 10 -16 15 -16 5 0 4 11 -1 25 -5 13 -6 47 -3 75 4 32 2 50 -5 50 -5
0 -13 -24 -17 -52z"/>
<path d="M9808 6086 c-9 -18 -30 -49 -47 -69 -34 -38 -42 -60 -13 -35 9 9 29
18 44 20 20 4 28 0 33 -16 7 -21 7 -21 13 2 9 28 3 132 -7 132 -4 0 -15 -15
-23 -34z m12 -46 c0 -11 -7 -20 -15 -20 -18 0 -19 12 -3 28 16 16 18 15 18 -8z"/>
<path d="M9653 6103 c-26 -5 -31 -23 -8 -23 13 0 15 -8 9 -37 -3 -21 -13 -44
-22 -50 -13 -11 -11 -13 19 -13 19 0 41 5 49 10 12 8 9 10 -14 10 -21 0 -27 4
-22 16 3 9 6 27 6 41 0 16 7 27 20 30 11 3 17 9 14 14 -5 9 -12 9 -51 2z"/>
<path d="M12124 6096 c-22 -17 -22 -16 31 -45 l40 -22 -38 4 c-23 2 -36 -1
-34 -7 2 -6 21 -11 43 -11 45 0 54 22 16 41 -39 19 -49 34 -24 34 12 0 22 5
22 10 0 15 -33 12 -56 -4z"/>
<path d="M12282 6099 c-28 -11 -22 -23 26 -50 l37 -20 -37 5 c-21 3 -38 1 -38
-4 0 -11 26 -20 61 -20 41 0 37 26 -8 53 -34 20 -36 22 -15 25 12 2 22 8 22
13 0 11 -18 11 -48 -2z"/>
<path d="M12928 6099 c-27 -15 -22 -26 25 -49 l42 -20 -38 3 c-23 2 -36 -1
-34 -7 5 -15 79 -14 84 1 3 7 -12 20 -31 30 -40 19 -47 33 -16 33 11 0 20 5
20 10 0 13 -30 12 -52 -1z"/>
<path d="M13282 6097 c-17 -20 -25 -64 -13 -71 7 -5 11 2 11 17 0 32 20 48 51
41 l24 -5 -25 15 c-31 19 -35 19 -48 3z"/>
<path d="M10456 6092 c-3 -6 -1 -14 5 -17 15 -10 25 3 12 16 -7 7 -13 7 -17 1z"/>
<path d="M11820 6085 c-11 -13 -15 -13 -21 -3 -6 8 -9 0 -9 -22 l1 -35 18 23
c23 27 41 28 41 3 0 -11 5 -23 11 -27 7 -4 9 1 5 15 -3 11 -9 30 -12 41 -6 24
-17 25 -34 5z"/>
<path d="M12607 6082 c-24 -26 -21 -59 6 -76 22 -15 77 -11 77 5 0 5 -13 6
-30 3 -29 -6 -60 8 -60 27 0 4 15 9 33 11 24 2 32 8 32 23 0 27 -36 31 -58 7z
m45 -14 c-9 -9 -15 -9 -24 0 -9 9 -7 12 12 12 19 0 21 -3 12 -12z"/>
<path d="M13405 6086 c-17 -12 -18 -18 -7 -40 18 -40 92 -29 92 14 0 35 -51
51 -85 26z m71 -18 c4 -6 -1 -17 -11 -25 -22 -15 -25 -16 -44 -4 -12 8 -12 12
-2 25 16 19 47 21 57 4z"/>
<path d="M11666 6071 c-32 -35 0 -64 46 -40 14 8 23 8 31 0 6 -6 17 -11 24
-11 9 0 4 13 -14 35 -31 39 -61 45 -87 16z m52 -3 c-6 -16 -36 -34 -44 -25 -9
9 15 37 33 37 8 0 13 -5 11 -12z"/>
<path d="M11890 6069 c-7 -11 -9 -27 -6 -35 7 -19 40 -18 56 1 12 14 15 14 30
0 9 -8 20 -15 24 -15 8 0 -24 52 -39 62 -20 15 -54 8 -65 -13z m50 -9 c-12
-22 -40 -27 -40 -7 0 19 10 27 32 27 16 0 17 -3 8 -20z"/>
<path d="M12800 6066 c0 -30 15 -41 57 -41 31 0 33 2 33 35 -1 33 -1 34 -15
16 -8 -11 -15 -24 -15 -29 0 -4 -10 -7 -22 -5 -17 2 -22 9 -21 26 2 12 -2 22
-7 22 -6 0 -10 -11 -10 -24z"/>
<path d="M13020 6066 c0 -30 15 -41 57 -41 30 0 33 3 33 33 0 38 -7 41 -20 7
-6 -15 -17 -25 -30 -25 -15 0 -20 7 -20 25 0 14 -4 25 -10 25 -5 0 -10 -11
-10 -24z"/>
<path d="M13140 6069 c-7 -11 -9 -27 -6 -35 7 -19 40 -18 56 1 12 14 15 14 30
0 9 -8 20 -15 24 -15 8 0 -24 52 -39 62 -20 15 -54 8 -65 -13z m50 -9 c-12
-22 -40 -27 -40 -7 0 19 10 27 32 27 16 0 17 -3 8 -20z"/>
<path d="M11575 6071 c6 -10 51 -8 62 2 3 4 -10 7 -31 7 -20 0 -35 -4 -31 -9z"/>
<path d="M12070 6063 c0 -10 5 -25 10 -33 7 -11 10 -7 10 18 0 17 -4 32 -10
32 -5 0 -10 -8 -10 -17z"/>
<path d="M12231 6051 c-1 -24 2 -32 9 -25 7 7 7 19 1 35 -9 23 -10 22 -10 -10z"/>
<path d="M13361 6051 c-1 -24 2 -32 9 -25 7 7 7 19 1 35 -9 23 -10 22 -10 -10z"/>
<path d="M10986 6054 c-17 -17 -22 -74 -7 -74 6 0 11 15 13 33 3 29 6 32 33
30 28 -2 29 -1 11 12 -25 19 -31 19 -50 -1z"/>
<path d="M9961 6034 c-11 -15 -21 -30 -21 -33 0 -16 26 -41 45 -42 38 -4 65 1
65 11 0 5 -13 7 -30 4 -29 -6 -60 8 -60 27 0 4 15 9 33 11 24 2 32 8 32 23 0
31 -39 31 -64 -1z m49 -4 c-19 -13 -30 -13 -30 0 0 6 10 10 23 10 18 0 19 -2
7 -10z"/>
<path d="M10066 6041 c-10 -11 -16 -27 -12 -36 9 -25 86 -48 86 -25 0 6 -10
10 -22 10 -33 0 -52 15 -44 35 4 13 13 15 32 11 19 -5 25 -3 22 6 -7 21 -43
20 -62 -1z"/>
<path d="M10505 6050 c3 -5 16 -10 28 -10 21 -1 20 -2 -5 -18 -45 -27 -35 -42
25 -41 l52 1 -40 13 c-22 8 -35 14 -30 15 6 0 19 7 30 16 17 13 18 16 5 24
-20 13 -73 13 -65 0z"/>
<path d="M10870 6045 c-27 -33 8 -73 54 -61 35 9 43 32 21 56 -21 23 -58 26
-75 5z m68 -26 c2 -10 -6 -19 -20 -22 -27 -8 -43 5 -34 28 8 21 50 16 54 -6z"/>
<path d="M10160 6026 c0 -30 15 -41 57 -41 31 0 33 2 33 35 -1 33 -1 34 -15
16 -8 -11 -15 -24 -15 -29 0 -4 -10 -7 -22 -5 -17 2 -22 9 -21 26 2 12 -2 22
-7 22 -6 0 -10 -11 -10 -24z"/>
<path d="M10276 6028 c-14 -20 -14 -24 -1 -38 14 -13 19 -13 45 2 24 14 29 14
34 2 3 -8 12 -14 21 -14 13 0 10 8 -11 35 -31 41 -65 46 -88 13z m52 -5 c-2
-10 -13 -19 -26 -21 -24 -4 -29 7 -10 26 18 18 40 15 36 -5z"/>
<path d="M10620 6029 c-7 -11 -9 -27 -6 -35 7 -19 40 -18 56 1 12 14 15 14 30
0 9 -8 20 -15 24 -15 8 0 -24 52 -39 62 -20 15 -54 8 -65 -13z m50 -9 c-12
-22 -40 -27 -40 -7 0 19 10 27 32 27 16 0 17 -3 8 -20z"/>
<path d="M9865 6031 c6 -10 51 -8 62 2 3 4 -10 7 -31 7 -20 0 -35 -4 -31 -9z"/>
<path d="M10460 6016 c0 -14 5 -28 10 -31 6 -3 10 5 10 19 0 14 -4 28 -10 31
-6 3 -10 -5 -10 -19z"/>
<path d="M9990 5822 c0 -4 -25 -47 -55 -95 -58 -91 -61 -97 -46 -97 5 0 26 27
46 60 20 33 38 60 40 60 3 0 -16 -93 -50 -234 -24 -104 -26 -131 -6 -110 7 7
71 294 71 319 0 3 5 3 10 0 6 -3 10 -19 10 -34 0 -44 11 -91 22 -91 6 0 7 21
3 53 -14 111 -27 177 -36 177 -5 0 -9 -4 -9 -8z"/>
<path d="M12369 5773 c-1 -4 -1 -147 0 -318 l1 -310 -30 80 c-35 92 -56 120
-47 63 5 -33 69 -203 81 -215 9 -9 26 8 26 25 0 9 16 59 35 111 19 51 35 98
35 104 0 21 -15 -6 -41 -70 l-26 -65 -6 212 c-4 117 -7 250 -7 296 0 46 -4 86
-10 89 -5 3 -10 3 -11 -2z"/>
<path d="M9474 5263 l-22 -4 2 -352 1 -352 190 0 190 0 3 351 2 351 -82 6
c-88 7 -249 7 -284 0z m346 -353 l0 -340 -177 0 -178 0 0 340 0 340 178 0 177
0 0 -340z"/>
<path d="M9573 5173 c43 -2 110 -2 150 0 40 1 5 3 -78 3 -82 0 -115 -2 -72 -3z"/>
<path d="M9540 5119 c-31 -3 13 -6 100 -6 152 0 163 4 25 9 -38 2 -95 0 -125
-3z"/>
<path d="M9495 5050 c4 -6 65 -10 151 -10 94 0 143 4 139 10 -4 6 -65 10 -151
10 -94 0 -143 -4 -139 -10z"/>
<path d="M9519 4988 c-13 -3 40 -6 119 -7 78 -1 142 3 142 7 0 10 -225 10
-261 0z"/>
<path d="M9722 4914 c-29 -20 -28 -32 3 -46 19 -8 28 -8 40 2 36 30 -4 71 -43
44z m46 -21 c2 -8 -6 -13 -22 -13 -25 0 -33 10 -19 24 10 10 36 3 41 -11z"/>
<path d="M12542 5010 c-68 -14 -94 -32 -119 -80 -21 -41 -22 -51 -13 -100 6
-29 7 -56 3 -59 -5 -3 -10 -70 -11 -148 l-4 -143 29 -11 c15 -5 37 -19 48 -29
42 -39 154 -67 169 -41 3 4 18 11 33 14 16 3 37 9 48 13 16 5 18 4 8 -6 -6 -7
-26 -16 -45 -20 -29 -7 -30 -8 -7 -9 15 -1 38 8 52 19 14 11 45 29 70 39 52
23 61 41 53 114 -4 36 -3 46 3 32 14 -30 13 27 -3 165 -8 63 -10 124 -6 135
12 30 -18 72 -69 97 -50 24 -167 33 -239 18z m221 -30 c53 -24 80 -51 71 -74
-8 -21 -77 -61 -130 -75 -31 -8 -59 -7 -118 4 -122 23 -155 47 -142 98 8 35
52 56 129 66 81 10 138 4 190 -19z m-206 -156 c92 -20 158 -14 220 21 25 14
47 25 49 25 2 0 4 -13 4 -29 0 -97 -245 -146 -351 -70 -34 24 -63 74 -55 96 5
12 10 11 32 -6 14 -11 59 -27 101 -37z m-23 -94 c72 -20 178 -7 249 29 l58 30
-3 -27 c-2 -22 -14 -32 -63 -56 -70 -34 -155 -44 -237 -27 -72 15 -108 43
-108 83 l0 30 29 -24 c16 -14 50 -31 75 -38z m308 -122 c3 -71 1 -118 -5 -126
-12 -16 -72 -42 -107 -47 -14 -2 -41 -9 -60 -15 -60 -17 -124 -13 -146 11 -21
23 -81 53 -104 51 -8 -1 -10 1 -5 3 6 3 9 48 7 114 l-4 109 44 -21 c36 -19 60
-22 153 -22 99 0 115 3 160 26 28 14 53 27 56 28 4 0 9 -50 11 -111z m-331
-175 c13 -15 12 -15 -8 -4 -24 12 -29 21 -14 21 5 0 15 -7 22 -17z"/>
<path d="M12831 4528 c-1 -9 -21 -31 -46 -49 -52 -37 -59 -48 -14 -22 42 25
72 59 66 75 -4 9 -6 8 -6 -4z"/>
<path d="M9947 4799 c11 -11 167 -21 1273 -79 322 -17 594 -32 605 -33 11 -2
-14 -14 -55 -27 -53 -17 -68 -26 -51 -28 13 -2 60 8 106 22 46 14 96 26 113
26 24 0 29 4 25 18 -3 13 -41 34 -119 65 -62 26 -119 47 -126 47 -24 0 8 -19
92 -54 47 -19 78 -35 70 -36 -8 0 -136 7 -285 15 -461 25 -1522 75 -1592 75
-48 0 -64 -3 -56 -11z"/>
<path d="M9383 4455 c-18 -8 -33 -19 -33 -24 0 -6 18 -20 40 -31 54 -28 52
-44 -5 -38 -44 5 -61 -4 -29 -16 44 -17 100 6 89 36 -4 9 -20 22 -36 28 -38
16 -37 24 9 43 24 10 30 15 17 16 -11 0 -35 -6 -52 -14z"/>
<path d="M9592 4418 c-17 -21 -25 -65 -13 -72 7 -5 11 2 11 17 0 53 68 58 87
6 6 -16 16 -29 22 -29 13 0 66 78 59 86 -3 3 -16 -11 -28 -31 -18 -29 -25 -33
-36 -24 -8 6 -14 22 -14 35 0 13 -4 24 -10 24 -5 0 -10 -5 -10 -11 0 -6 -7 -8
-15 -5 -8 3 -21 8 -28 11 -8 3 -19 0 -25 -7z"/>
<path d="M9892 4417 c-17 -20 -25 -64 -13 -71 7 -5 11 2 11 17 0 32 20 48 51
41 l24 -5 -25 15 c-31 19 -35 19 -48 3z"/>
<path d="M9481 4394 c-11 -15 -21 -30 -21 -33 0 -16 26 -41 45 -42 38 -4 65 1
65 11 0 5 -13 7 -30 4 -29 -6 -60 8 -60 27 0 4 15 9 33 11 24 2 32 8 32 23 0
31 -39 31 -64 -1z m49 -4 c-19 -13 -30 -13 -30 0 0 6 10 10 23 10 18 0 19 -2
7 -10z"/>
<path d="M9781 4394 c-11 -15 -21 -30 -21 -33 0 -16 26 -41 45 -42 38 -4 65 1
65 11 0 5 -13 7 -30 4 -29 -6 -60 8 -60 27 0 4 15 9 33 11 24 2 32 8 32 23 0
31 -39 31 -64 -1z m49 -4 c-19 -13 -30 -13 -30 0 0 6 10 10 23 10 18 0 19 -2
7 -10z"/>
<path d="M12724 4336 c-3 -7 -4 -40 -2 -72 3 -57 4 -59 33 -62 19 -3 33 2 42
14 17 24 -1 44 -39 44 -29 0 -29 0 -22 45 6 43 -1 61 -12 31z m61 -101 c0 -5
-10 -11 -22 -13 -16 -2 -23 2 -23 13 0 11 7 15 23 13 12 -2 22 -7 22 -13z"/>
<path d="M12191 4327 c10 -7 18 -33 21 -64 5 -48 3 -53 -15 -53 -11 0 -17 -3
-13 -7 21 -21 136 14 136 41 0 21 -47 66 -85 82 -43 18 -67 18 -44 1z m103
-63 c9 -22 -11 -44 -40 -44 -22 0 -24 4 -24 45 l0 46 29 -15 c16 -9 31 -23 35
-32z"/>
<path d="M12500 4318 c0 -9 -9 -20 -20 -23 -11 -3 -20 -11 -20 -16 0 -6 9 -7
20 -4 18 6 20 2 20 -35 0 -27 5 -43 15 -46 19 -8 45 13 45 34 0 13 -3 12 -15
-4 -13 -16 -16 -17 -25 -4 -18 26 -7 64 20 70 17 4 21 8 12 14 -6 4 -16 5 -21
1 -6 -3 -14 3 -20 12 -9 16 -10 16 -11 1z"/>
<path d="M12964 4276 c-22 -17 -22 -16 31 -45 l40 -22 -38 4 c-23 2 -36 -1
-34 -7 2 -6 21 -11 43 -11 45 0 54 22 16 41 -39 19 -49 34 -24 34 12 0 22 5
22 10 0 15 -33 12 -56 -4z"/>
<path d="M13076 4258 c-22 -32 -20 -55 8 -73 25 -17 70 -12 83 8 4 6 -4 8 -21
3 -35 -9 -66 1 -66 20 0 9 10 14 29 14 28 0 47 22 35 41 -10 17 -53 9 -68 -13z
m46 -10 c-9 -9 -15 -9 -24 0 -9 9 -7 12 12 12 19 0 21 -3 12 -12z"/>
<path d="M12346 4248 c-14 -20 -14 -24 -1 -38 14 -13 19 -13 45 2 24 14 29 14
34 2 3 -8 12 -14 21 -14 13 0 10 8 -11 35 -31 41 -65 46 -88 13z m52 -5 c-2
-10 -13 -19 -26 -21 -24 -4 -29 7 -10 26 18 18 40 15 36 -5z"/>
<path d="M12590 4249 c-7 -11 -9 -27 -6 -35 7 -19 40 -18 56 1 12 14 15 14 30
0 9 -8 20 -15 24 -15 8 0 -24 52 -39 62 -20 15 -54 8 -65 -13z m50 -9 c-12
-22 -40 -27 -40 -7 0 19 10 27 32 27 16 0 17 -3 8 -20z"/>
<path d="M12826 4248 c-14 -20 -14 -24 -1 -38 14 -13 19 -13 45 2 24 14 29 14
34 2 3 -8 12 -14 21 -14 13 0 10 8 -11 35 -31 41 -65 46 -88 13z m52 -5 c-2
-10 -13 -19 -26 -21 -24 -4 -29 7 -10 26 18 18 40 15 36 -5z"/>
<path d="M4328 6953 c-5 -67 -2 -93 11 -93 7 0 7 148 -1 156 -3 3 -8 -26 -10
-63z"/>
<path d="M4650 6970 c0 -11 -7 -20 -15 -20 -8 0 -15 -4 -15 -10 0 -5 7 -10 15
-10 10 0 15 -10 15 -27 0 -39 14 -56 38 -49 21 7 39 36 22 36 -6 0 -10 -4 -10
-10 0 -5 -7 -10 -15 -10 -10 0 -15 10 -15 33 0 27 5 35 28 44 l27 11 -27 1
c-18 1 -28 7 -28 16 0 8 -4 15 -10 15 -5 0 -10 -9 -10 -20z"/>
<path d="M4366 6972 c-3 -6 -1 -14 5 -17 15 -10 25 3 12 16 -7 7 -13 7 -17 1z"/>
<path d="M4868 6939 c-27 -15 -22 -26 20 -49 l37 -21 -37 5 c-21 3 -38 1 -38
-4 0 -11 26 -20 61 -20 41 0 37 26 -8 53 -34 20 -36 22 -15 25 12 2 22 8 22
13 0 12 -20 11 -42 -2z"/>
<path d="M4235 6920 c-15 -16 -17 -25 -9 -38 13 -20 62 -28 77 -13 8 8 0 11
-27 11 -30 0 -37 3 -34 18 3 12 12 16 32 15 17 -1 26 2 23 10 -6 21 -42 19
-62 -3z"/>
<path d="M4436 6924 c-21 -20 -21 -60 0 -68 25 -10 62 -7 70 5 5 9 -1 10 -20
5 -18 -4 -34 -2 -44 6 -13 11 -11 14 14 18 20 4 30 12 32 28 4 27 -28 31 -52
6z m35 -17 c-13 -13 -26 -3 -16 12 3 6 11 8 17 5 6 -4 6 -10 -1 -17z"/>
<path d="M4561 6923 c-6 -10 -11 -12 -11 -5 0 28 -20 9 -20 -20 l0 -31 23 21
c29 27 37 28 37 3 0 -11 5 -23 11 -27 8 -4 9 4 4 27 -12 55 -25 64 -44 32z"/>
<path d="M4757 6922 c-20 -22 -22 -43 -5 -60 14 -14 64 -16 73 -2 4 6 -5 7
-23 4 -19 -4 -32 -1 -41 10 -12 14 -10 16 12 16 27 0 52 23 42 40 -10 16 -40
12 -58 -8z m43 -1 c0 -12 -20 -25 -27 -18 -7 7 6 27 18 27 5 0 9 -4 9 -9z"/>
<path d="M4371 6908 c0 -7 4 -22 9 -33 7 -17 9 -15 9 13 1 17 -3 32 -9 32 -5
0 -10 -6 -9 -12z"/>
<path d="M4480 5687 c-51 -25 -90 -76 -90 -118 0 -34 43 -87 87 -105 97 -41
203 16 203 108 0 104 -103 163 -200 115z m122 -8 c34 -14 68 -67 68 -106 0
-62 -85 -122 -155 -109 -41 8 -103 58 -111 91 -6 26 14 71 45 99 32 29 110 42
153 25z"/>
<path d="M4475 5383 c-100 -22 -152 -58 -177 -122 -8 -21 -37 -252 -38 -298 0
-10 34 -13 143 -11 78 0 126 4 107 7 -22 4 4 8 75 11 l110 6 -112 2 c-70 1
-113 -2 -113 -8 0 -11 -74 -13 -145 -3 l-48 6 6 77 c8 101 33 207 58 248 29
50 76 65 199 66 121 1 140 -7 191 -77 17 -23 36 -41 41 -39 6 2 8 -4 5 -12 -4
-9 2 -35 13 -58 13 -29 17 -34 14 -15 -10 45 4 31 20 -20 8 -27 15 -38 15 -27
1 36 -77 179 -118 217 -30 27 -52 37 -103 46 -65 11 -106 12 -143 4z m255 -68
c13 -14 21 -25 18 -25 -2 0 -15 11 -28 25 -13 14 -21 25 -18 25 2 0 15 -11 28
-25z m38 -60 c-3 -3 -9 2 -12 12 -6 14 -5 15 5 6 7 -7 10 -15 7 -18z m32 -60
c0 -5 -5 -3 -10 5 -5 8 -10 20 -10 25 0 6 5 3 10 -5 5 -8 10 -19 10 -25z"/>
<path d="M4811 5114 c0 -11 3 -14 6 -6 3 7 2 16 -1 19 -3 4 -6 -2 -5 -13z"/>
<path d="M4820 5057 c0 -41 -14 -52 -83 -67 l-42 -9 50 4 c35 3 45 2 35 -5 -9
-5 -10 -10 -3 -10 6 0 23 14 37 31 20 23 24 37 20 57 -10 40 -14 40 -14 -1z"/>
<path d="M4368 4973 c12 -2 30 -2 40 0 9 3 -1 5 -23 4 -22 0 -30 -2 -17 -4z"/>
<path d="M4728 4963 c6 -2 18 -2 25 0 6 3 1 5 -13 5 -14 0 -19 -2 -12 -5z"/>
<path d="M4603 4953 c20 -2 54 -2 75 0 20 2 3 4 -38 4 -41 0 -58 -2 -37 -4z"/>
<path d="M4347 4823 c-3 -43 -1 -82 4 -87 5 -6 9 25 9 77 0 48 -2 87 -4 87 -2
0 -6 -35 -9 -77z"/>
<path d="M4660 4848 c0 -9 -9 -20 -20 -23 -11 -3 -20 -11 -20 -16 0 -6 9 -8
19 -4 17 5 20 0 23 -37 2 -30 8 -44 19 -46 21 -4 51 26 42 41 -5 8 -9 6 -11
-5 -6 -30 -29 -20 -35 15 -6 39 -2 47 24 47 10 0 19 5 19 11 0 6 -8 8 -19 4
-13 -4 -23 0 -30 12 -9 16 -10 16 -11 1z"/>
<path d="M4386 4841 c-3 -5 1 -11 9 -15 8 -3 15 -1 15 4 0 13 -18 22 -24 11z"/>
<path d="M4246 4791 c-10 -11 -16 -27 -12 -36 9 -25 86 -48 86 -25 0 6 -10 10
-22 10 -33 0 -52 15 -44 35 4 13 13 15 32 11 19 -5 25 -3 22 6 -7 21 -43 20
-62 -1z"/>
<path d="M4446 4788 c-22 -32 -20 -55 8 -73 25 -17 70 -12 83 8 4 6 -4 8 -21
3 -35 -9 -66 1 -66 20 0 9 10 14 29 14 28 0 47 22 35 41 -10 17 -53 9 -68 -13z
m46 -10 c-9 -9 -15 -9 -24 0 -9 9 -7 12 12 12 19 0 21 -3 12 -12z"/>
<path d="M4571 4793 c-6 -10 -11 -12 -11 -5 0 27 -20 10 -20 -18 0 -35 10 -38
28 -10 16 25 32 26 32 1 0 -11 5 -23 10 -26 13 -8 13 16 0 49 -11 30 -25 33
-39 9z"/>
<path d="M4767 4792 c-24 -26 -21 -59 6 -76 22 -15 77 -11 77 5 0 5 -13 6 -30
3 -29 -6 -60 8 -60 27 0 4 15 9 33 11 24 2 32 8 32 23 0 27 -36 31 -58 7z m45
-14 c-9 -9 -15 -9 -24 0 -9 9 -7 12 12 12 19 0 21 -3 12 -12z"/>
<path d="M4390 4773 c0 -10 5 -25 10 -33 7 -11 10 -7 10 18 0 17 -4 32 -10 32
-5 0 -10 -8 -10 -17z"/>
<path d="M6142 7093 c-61 -21 -97 -78 -96 -150 1 -145 173 -206 267 -94 71 85
32 206 -82 246 -24 8 -44 15 -45 14 0 0 -20 -7 -44 -16z m-9 -38 c-18 -24 -43
-33 -43 -15 0 7 44 38 58 40 2 0 -5 -11 -15 -25z m117 -17 c0 -12 -38 -10 -45
2 -4 6 -4 18 -1 27 6 14 9 14 26 -2 11 -10 20 -22 20 -27z m40 8 c10 -13 10
-16 -3 -16 -8 0 -22 12 -32 26 -16 24 -16 25 3 15 10 -5 24 -17 32 -25z m-100
4 c0 -16 -7 -20 -32 -20 -30 0 -31 0 -13 20 10 11 24 20 32 20 7 0 13 -9 13
-20z m-80 -70 c0 -25 -4 -30 -25 -30 -20 0 -25 5 -25 23 0 28 7 37 32 37 13 0
18 -8 18 -30z m80 0 c0 -28 -3 -30 -35 -30 -30 0 -35 3 -35 23 0 31 7 37 42
37 24 0 28 -4 28 -30z m74 14 c13 -34 7 -44 -29 -44 -32 0 -35 2 -35 30 0 26
3 30 29 30 17 0 31 -6 35 -16z m64 -16 c3 -24 0 -28 -22 -28 -22 0 -26 4 -26
31 0 26 3 30 23 27 16 -2 23 -11 25 -30z m-216 -73 c6 -31 0 -35 -29 -24 -32
12 -31 49 1 49 17 0 25 -7 28 -25z m78 -6 c0 -27 -3 -30 -27 -27 -19 2 -29 10
-34 31 -7 26 -5 27 27 27 31 0 34 -2 34 -31z m80 14 c0 -27 -12 -38 -42 -39
-24 -1 -28 3 -28 27 0 26 3 29 35 29 27 0 35 -4 35 -17z m58 -5 c-2 -15 -11
-24 -25 -26 -19 -3 -23 1 -23 22 0 21 5 26 26 26 21 0 25 -4 22 -22z m-198
-68 c6 -11 7 -20 2 -20 -5 0 -17 9 -27 20 -16 18 -16 20 -2 20 9 0 21 -9 27
-20z m60 -6 c0 -30 -16 -28 -38 4 -14 21 -13 22 12 22 21 0 26 -5 26 -26z m60
20 c0 -3 -5 -14 -10 -25 -15 -28 -40 -24 -40 6 0 20 5 25 25 25 14 0 25 -3 25
-6z m35 -14 c-10 -11 -22 -20 -27 -20 -5 0 -4 9 2 20 6 11 18 20 27 20 14 0
14 -2 -2 -20z"/>
<path d="M6105 6741 c-9 -16 9 -20 23 -5 10 12 10 14 -2 14 -8 0 -17 -4 -21
-9z"/>
<path d="M6335 6740 c-8 -13 5 -13 25 0 13 8 13 10 -2 10 -9 0 -20 -4 -23 -10z"/>
<path d="M6161 6722 c-6 -11 -7 -22 -4 -26 13 -12 44 -6 50 12 4 9 11 20 17
24 7 5 6 8 -2 8 -8 0 -16 -9 -19 -20 -3 -13 -13 -20 -27 -19 -17 1 -17 2 -3 6
19 5 23 18 8 28 -6 3 -15 -3 -20 -13z"/>
<path d="M6288 6720 c-15 -16 -15 -19 -1 -24 8 -3 22 -6 31 -5 10 1 7 4 -8 9
-17 5 -19 8 -7 9 18 1 23 16 9 25 -5 3 -16 -3 -24 -14z"/>
<path d="M6060 6720 c0 -5 7 -7 15 -4 8 4 15 8 15 10 0 2 -7 4 -15 4 -8 0 -15
-4 -15 -10z"/>
<path d="M6240 6720 c0 -5 7 -7 15 -4 8 4 15 8 15 10 0 2 -7 4 -15 4 -8 0 -15
-4 -15 -10z"/>
<path d="M6018 6703 c6 -2 18 -2 25 0 6 3 1 5 -13 5 -14 0 -19 -2 -12 -5z"/>
<path d="M6662 6241 c-99 -6 -105 -7 -128 -35 -25 -28 -25 -31 -21 -172 5
-190 8 -194 140 -194 64 0 86 -3 85 -12 -2 -9 -41 -14 -138 -18 l-135 -5 -6
-43 c-3 -27 -1 -46 6 -52 8 -7 139 -9 351 -8 l339 3 0 50 0 50 -137 3 c-181 3
-186 28 -8 35 63 2 65 3 82 37 15 29 18 62 18 182 0 187 11 177 -196 181 -82
2 -196 1 -252 -2z m398 -29 l35 -17 -1 -144 0 -144 -28 -23 c-15 -13 -23 -24
-19 -24 5 0 15 6 22 13 11 10 13 9 9 -3 -4 -12 -44 -14 -260 -15 -141 0 -255
2 -253 4 2 2 -5 11 -15 20 -17 14 -20 31 -21 159 -1 79 2 147 7 152 36 35 69
40 279 40 180 0 215 -3 245 -18z m-212 -389 c-15 -2 -42 -2 -60 0 -18 2 -6 4
27 4 33 0 48 -2 33 -4z m292 -63 l0 -40 -335 0 -335 0 0 24 c0 59 -17 56 341
56 l329 0 0 -40z"/>
<path d="M6582 6172 c-13 -21 -17 -49 -17 -139 0 -157 -15 -147 241 -151 269
-4 254 -13 254 153 0 175 16 165 -250 164 l-211 -1 -17 -26z m451 -1 c8 -8 12
-50 12 -129 l0 -117 -35 -18 c-31 -16 -55 -18 -218 -13 -120 3 -188 9 -198 17
-19 15 -20 227 -1 251 18 23 19 23 232 22 140 0 199 -4 208 -13z"/>
<path d="M7035 5781 c-61 -5 -70 -9 -70 -25 0 -18 7 -20 65 -18 36 0 67 1 70
2 3 0 6 11 6 25 1 14 1 24 0 23 0 -1 -32 -4 -71 -7z m33 -28 c-15 -2 -42 -2
-60 0 -18 2 -6 4 27 4 33 0 48 -2 33 -4z"/>
<path d="M6668 5579 c-2 -26 -8 -35 -25 -37 -20 -3 -23 1 -23 27 0 41 -20 40
-21 -1 -1 -18 -3 -43 -4 -56 -1 -12 2 -25 6 -28 5 -3 9 1 9 9 0 14 20 27 41
27 5 0 9 -11 9 -25 0 -14 5 -25 11 -25 6 0 9 6 6 13 -2 7 -1 35 3 62 5 28 4
54 0 59 -5 5 -10 -7 -12 -25z"/>
<path d="M6950 5596 c0 -8 -9 -18 -20 -21 -11 -3 -20 -11 -20 -16 0 -6 9 -7
20 -4 17 5 20 2 20 -27 0 -50 13 -64 44 -50 14 6 26 20 26 29 -1 17 -1 17 -14
1 -22 -30 -36 -21 -36 22 0 36 2 40 26 40 15 0 23 4 19 10 -4 6 -15 8 -26 5
-13 -4 -19 -2 -19 9 0 9 -4 16 -10 16 -5 0 -10 -6 -10 -14z"/>
<path d="M6832 5559 c-28 -11 -22 -23 26 -50 l37 -20 -37 5 c-21 3 -38 1 -38
-4 0 -11 26 -20 61 -20 41 0 37 26 -8 53 -34 20 -36 22 -15 25 12 2 22 8 22
13 0 11 -18 11 -48 -2z"/>
<path d="M6716 5547 c-40 -29 2 -79 51 -61 34 11 42 40 16 59 -23 18 -44 19
-67 2z m62 -29 c4 -19 -35 -35 -50 -20 -6 6 -8 18 -4 27 8 21 50 16 54 -7z"/>
<path d="M6776 5111 c-3 -4 -29 -11 -58 -14 -73 -7 -179 -51 -216 -90 -46 -48
-74 -135 -65 -206 l8 -56 5 81 c6 95 31 140 105 193 50 36 172 71 246 71 65 0
137 -39 203 -111 121 -130 116 -301 -12 -432 -74 -76 -131 -102 -227 -102 -95
0 -136 18 -206 92 -51 52 -75 94 -96 163 l-13 45 6 -40 c3 -21 15 -57 26 -78
10 -21 17 -41 14 -44 -5 -6 -45 69 -57 107 -5 17 -8 19 -8 7 -2 -31 48 -117
95 -163 100 -101 247 -133 362 -79 76 35 154 113 188 188 24 52 29 75 29 142
0 86 -17 131 -76 206 -34 43 -104 93 -118 84 -6 -3 -9 0 -6 7 4 9 -11 17 -48
26 -62 14 -74 15 -81 3z m209 -86 c23 -20 18 -19 -17 6 -27 18 -48 34 -48 36
0 7 35 -16 65 -42z m-448 -8 c-16 -12 -37 -33 -48 -47 -17 -20 -18 -21 -10 -4
11 22 67 74 79 74 4 0 -6 -10 -21 -23z m-12 -457 c10 -11 16 -20 13 -20 -3 0
-13 9 -23 20 -10 11 -16 20 -13 20 3 0 13 -9 23 -20z"/>
<path d="M6742 4959 c-77 -10 -103 -25 -137 -84 -32 -53 -37 -134 -12 -182 22
-43 80 -90 124 -102 51 -14 67 -14 111 5 134 56 168 220 65 315 -49 46 -81 56
-151 48z m18 -45 c0 -14 4 -23 9 -20 5 3 7 15 4 26 -4 16 0 20 21 20 59 0 129
-63 142 -128 6 -30 5 -32 -22 -33 l-29 -2 28 -4 c15 -2 27 -10 27 -18 0 -63
-88 -155 -148 -155 -15 0 -18 5 -14 25 2 15 0 25 -7 25 -6 0 -11 -11 -11 -25
0 -20 -5 -25 -24 -25 -53 0 -136 85 -136 141 0 22 4 26 20 22 11 -3 20 0 20 6
0 6 -11 11 -24 11 -23 0 -23 2 -15 41 5 22 16 51 25 64 18 28 69 54 107 55 22
0 27 -4 27 -26z"/>
<path d="M6791 4843 c-17 -32 -30 -64 -29 -71 3 -14 116 -67 125 -58 3 2 -18
16 -45 30 -28 14 -53 30 -57 35 -3 6 6 33 20 62 36 71 24 73 -14 2z"/>
<path d="M6423 4765 c0 -27 2 -38 4 -22 2 15 2 37 0 50 -2 12 -4 0 -4 -28z"/>
<path d="M7640 4263 c0 -46 2 -83 5 -83 3 0 17 12 30 28 l23 27 11 -27 c6 -16
13 -28 16 -28 10 0 5 37 -9 55 -14 19 -15 19 -35 1 l-21 -19 0 49 c0 27 -5 56
-10 64 -7 10 -10 -11 -10 -67z"/>
<path d="M7010 4293 c0 -14 -6 -23 -15 -23 -8 0 -15 -4 -15 -10 0 -5 7 -10 15
-10 10 0 15 -10 15 -27 0 -39 14 -56 38 -49 21 7 39 36 22 36 -6 0 -10 -4 -10
-10 0 -5 -7 -10 -15 -10 -10 0 -15 10 -15 33 0 27 5 35 28 44 l27 11 -27 1
c-15 1 -32 9 -37 19 -9 15 -10 15 -11 -5z"/>
<path d="M7451 4293 c-1 -13 -7 -23 -16 -23 -8 0 -15 -4 -15 -10 0 -5 7 -10
15 -10 11 0 15 -11 15 -35 0 -23 6 -38 15 -41 19 -8 45 13 45 34 0 13 -2 13
-13 -3 -18 -24 -37 -11 -37 24 0 20 7 30 28 38 l27 11 -27 1 c-16 1 -28 8 -31
19 -4 13 -5 11 -6 -5z"/>
<path d="M6555 4256 c-20 -14 -20 -14 50 -55 17 -10 15 -11 -18 -8 -23 2 -36
-1 -34 -7 5 -15 79 -14 84 1 3 7 -12 20 -31 30 -40 19 -47 33 -16 33 11 0 20
5 20 10 0 14 -33 12 -55 -4z"/>
<path d="M6900 4223 c0 -40 18 -53 22 -16 2 17 12 32 28 40 24 13 24 13 -12
10 -35 -2 -38 -4 -38 -34z"/>
<path d="M7180 4233 c0 -41 15 -60 33 -44 10 8 17 9 22 1 11 -18 22 -11 49 30
14 22 22 40 16 40 -5 0 -17 -11 -26 -25 -19 -29 -34 -32 -34 -7 0 14 -4 12
-20 -8 l-20 -25 0 27 c0 15 -4 30 -10 33 -6 4 -10 -6 -10 -22z"/>
<path d="M7545 4240 c-15 -16 -17 -25 -9 -38 12 -18 84 -30 84 -13 0 5 -15 11
-32 13 -43 4 -47 34 -5 31 18 -1 27 2 24 10 -6 21 -42 19 -62 -3z"/>
<path d="M6682 4235 c-6 -11 -12 -14 -12 -7 0 27 -20 10 -20 -18 0 -33 14 -40
24 -13 6 15 8 15 16 3 8 -13 12 -13 27 3 16 16 18 16 30 -5 l12 -23 0 25 c1
14 -4 32 -9 40 -9 13 -12 13 -23 -2 -12 -15 -14 -15 -23 0 -10 15 -12 14 -22
-3z"/>
<path d="M6795 4234 c-9 -9 -14 -23 -11 -31 3 -8 6 -17 6 -19 0 -9 37 -3 48 8
8 8 15 8 27 -2 18 -15 19 -3 5 34 -11 30 -49 35 -75 10z m53 -6 c-6 -16 -36
-34 -44 -25 -9 9 15 37 33 37 8 0 13 -5 11 -12z"/>
<path d="M7322 4238 c-32 -32 2 -73 41 -49 16 10 21 10 28 0 15 -24 21 -1 7
28 -15 31 -55 42 -76 21z m48 -18 c-11 -20 -31 -26 -43 -13 -11 10 13 33 35
33 16 0 17 -3 8 -20z"/>
<path d="M6600 3718 l0 -348 230 0 230 0 -2 348 -3 347 -227 0 -228 0 0 -347z
m445 -4 l0 -336 -35 6 c-19 3 -59 6 -88 6 -47 0 -53 2 -47 19 3 11 -2 28 -14
42 -17 21 -21 22 -46 11 -22 -10 -26 -18 -23 -41 4 -27 2 -29 -40 -35 -25 -3
-66 -6 -91 -6 l-46 0 0 335 0 335 215 0 215 0 0 -336z m-189 -279 c6 -14 -11
-45 -25 -45 -19 1 -32 20 -26 39 7 24 43 29 51 6z"/>
<path d="M6678 4013 l-28 -4 0 -265 0 -264 185 0 185 0 0 264 0 264 -31 6
c-34 6 -266 6 -311 -1z m322 -265 l0 -253 -170 -2 -170 -1 2 254 3 254 168 0
167 0 0 -252z"/>
<path d="M6707 3943 c-4 -3 -7 -35 -7 -70 l0 -63 48 -1 c80 -2 166 -2 190 0
21 1 22 5 22 71 l0 70 -123 0 c-68 0 -127 -3 -130 -7z m206 -12 l37 -1 0 -55
0 -55 -118 0 -117 0 0 53 0 52 40 5 c22 3 58 5 80 4 22 -1 57 -2 78 -3z"/>
<path d="M6700 3650 l0 -70 130 0 130 0 1 25 c0 14 1 39 1 55 0 64 9 60 -132
60 l-130 0 0 -70z m248 1 l-3 -56 -112 -3 c-62 -1 -113 1 -114 5 0 4 -1 32 -2
60 l-2 53 118 -1 118 -1 -3 -57z"/>
<path d="M7010 3245 c0 -47 3 -85 8 -85 4 0 8 38 10 85 1 52 -2 85 -8 85 -6 0
-10 -34 -10 -85z"/>
<path d="M7387 3253 c-7 -65 4 -93 36 -93 58 1 65 53 8 58 l-33 3 7 45 c3 25
2 44 -3 44 -5 0 -12 -26 -15 -57z m68 -53 c8 -13 -20 -24 -41 -16 -20 8 -9 26
16 26 10 0 22 -5 25 -10z"/>
<path d="M6790 3285 c-6 -8 -10 -20 -8 -26 2 -6 12 0 21 15 18 27 8 37 -13 11z"/>
<path d="M6956 3271 c-3 -5 1 -11 9 -15 8 -3 15 -1 15 4 0 13 -18 22 -24 11z"/>
<path d="M6850 3240 c0 -19 29 -80 38 -80 11 0 36 28 52 58 20 39 4 36 -21 -4
-21 -34 -23 -35 -36 -18 -7 10 -13 26 -13 36 0 10 -4 18 -10 18 -5 0 -10 -5
-10 -10z"/>
<path d="M6332 3228 c-14 -14 -16 -124 -3 -132 5 -4 7 11 4 33 -5 39 -5 39 28
38 28 -2 35 2 37 19 3 23 -21 54 -42 54 -6 0 -17 -5 -24 -12z m47 -21 c12 -15
5 -27 -16 -27 -7 0 -13 9 -13 20 0 23 13 26 29 7z"/>
<path d="M6432 3228 c-14 -14 -16 -124 -3 -132 5 -4 7 11 4 33 -5 39 -5 39 28
38 28 -2 35 2 37 19 3 23 -21 54 -42 54 -6 0 -17 -5 -24 -12z m47 -21 c12 -15
5 -27 -16 -27 -7 0 -13 9 -13 20 0 23 13 26 29 7z"/>
<path d="M6756 3227 c-40 -29 2 -79 51 -61 34 11 42 40 16 59 -23 18 -44 19
-67 2z m62 -29 c4 -19 -35 -35 -50 -20 -6 6 -8 18 -4 27 8 21 50 16 54 -7z"/>
<path d="M7156 3228 c-4 -9 -6 -27 -4 -40 2 -18 10 -23 35 -24 26 -1 39 6 64
33 16 19 28 38 24 41 -3 3 -17 -7 -30 -23 -21 -25 -26 -28 -35 -15 -9 13 -12
13 -24 -3 -14 -18 -15 -17 -18 15 -3 25 -6 29 -12 16z"/>
<path d="M7291 3214 c-11 -15 -21 -30 -21 -33 0 -16 26 -41 45 -42 38 -4 65 1
65 11 0 5 -13 7 -30 4 -29 -6 -60 8 -60 27 0 4 15 9 33 11 24 2 32 8 32 23 0
31 -39 31 -64 -1z m49 -4 c-19 -13 -30 -13 -30 0 0 6 10 10 23 10 18 0 19 -2
7 -10z"/>
<path d="M6196 3211 c-32 -35 0 -64 46 -40 14 8 23 8 31 0 6 -6 17 -11 24 -11
9 0 4 13 -14 35 -31 39 -61 45 -87 16z m52 -3 c-6 -16 -36 -34 -44 -25 -9 9
15 37 33 37 8 0 13 -5 11 -12z"/>
<path d="M6646 3213 c-6 -15 -8 -15 -16 -3 -7 11 -10 6 -10 -19 0 -33 1 -33
19 -17 15 13 20 14 24 4 4 -10 9 -9 17 5 13 21 30 22 30 3 0 -8 5 -18 10 -21
7 -4 8 3 4 22 -10 43 -14 46 -35 27 -17 -16 -19 -16 -19 -1 0 22 -16 22 -24 0z"/>
<path d="M6960 3203 c0 -10 5 -25 10 -33 7 -11 10 -7 10 18 0 17 -4 32 -10 32
-5 0 -10 -8 -10 -17z"/>
<path d="M14155 1853 c-28 -7 -55 -33 -55 -53 0 -25 -162 -66 -200 -50 -19 8
-36 8 -65 -2 -53 -18 -63 -37 -45 -90 l15 -43 58 0 c45 -1 62 -5 79 -23 l22
-22 -24 -25 c-22 -23 -26 -24 -36 -11 -27 37 -117 -7 -122 -60 -6 -57 74 -101
120 -65 24 19 24 19 107 -20 53 -25 85 -46 88 -58 8 -31 64 -53 102 -40 35 12
51 35 51 72 0 19 17 38 75 81 68 51 78 56 112 50 30 -4 44 -1 66 16 37 29 36
72 -2 111 -26 26 -33 28 -54 18 -23 -10 -32 -5 -111 62 -47 41 -86 81 -86 90
0 17 -51 70 -66 68 -5 -1 -18 -4 -29 -6z m59 -28 c23 -18 24 -60 1 -85 -24
-27 -81 -27 -95 -1 -36 68 34 131 94 86z m-110 -77 c4 -18 -4 -32 -34 -63
l-40 -40 -45 25 c-38 21 -62 46 -53 56 3 2 145 41 159 43 4 1 9 -9 13 -21z
m226 -55 c69 -60 77 -70 64 -84 -8 -8 -14 -21 -14 -27 0 -8 -23 -12 -69 -12
-65 0 -70 2 -73 22 -2 15 -16 29 -38 40 -33 15 -37 15 -71 -4 -29 -16 -40 -18
-58 -9 -27 15 -27 19 13 64 28 31 37 36 56 29 34 -12 69 -3 88 24 9 13 18 24
20 24 2 0 38 -30 82 -67z m-422 35 c17 -17 15 -68 -5 -90 -31 -35 -101 -15
-104 30 -2 32 2 47 19 60 20 15 74 16 90 0z m87 -117 l-25 -25 -21 21 c-16 16
-20 28 -15 48 l7 26 40 -23 40 -22 -26 -25z m95 -27 c0 -7 2 -19 5 -26 4 -9
-7 -20 -29 -30 -33 -16 -34 -16 -62 13 l-28 29 29 30 c28 29 29 29 57 12 15
-9 28 -22 28 -28z m118 30 c27 -18 30 -69 5 -96 -36 -40 -103 -10 -103 45 0
58 51 85 98 51z m291 -10 c12 -15 21 -34 21 -44 0 -41 -79 -69 -115 -40 -32
27 -12 86 35 103 28 10 39 7 59 -19z m-504 -70 c19 -30 20 -28 -22 -42 -28 -9
-34 -8 -42 6 -7 13 -4 23 11 40 27 28 32 28 53 -4z m385 -3 c6 -13 7 -27 2
-30 -4 -3 -38 -28 -75 -54 l-66 -48 -28 20 c-24 17 -34 19 -68 11 -37 -8 -41
-7 -67 23 -34 40 -35 51 -2 66 23 10 28 9 40 -7 31 -45 106 -31 120 22 5 21
11 23 69 23 58 -1 65 -3 75 -26z m-471 -25 c16 -17 21 -31 16 -45 -3 -12 -10
-19 -15 -16 -4 3 -7 -3 -6 -13 2 -29 -59 -28 -89 2 -32 32 -32 49 1 75 35 28
65 26 93 -3z m191 -108 c0 -30 -16 -29 -94 7 -86 39 -90 55 -23 78 l42 15 37
-42 c20 -22 37 -49 38 -58z m129 -55 c-12 -33 -26 -43 -61 -43 -36 0 -58 24
-58 64 0 61 58 80 102 34 24 -24 26 -31 17 -55z"/>
<path d="M11380 1665 c0 -69 3 -125 8 -125 4 0 6 54 4 120 l-3 120 180 0 181
0 0 -344 0 -344 -181 -2 -181 -1 7 103 c4 65 3 98 -3 90 -13 -19 -15 -189 -3
-196 9 -6 361 -10 366 -4 5 7 13 655 8 681 l-5 27 -189 0 -189 0 0 -125z"/>
<path d="M11503 1703 c43 -2 110 -2 150 0 40 1 5 3 -78 3 -82 0 -115 -2 -72
-3z"/>
<path d="M11427 1638 c-7 -4 54 -8 136 -8 99 0 147 4 147 11 0 12 -264 9 -283
-3z"/>
<path d="M9097 1612 c-8 -9 -20 -30 -26 -45 -15 -38 -15 -287 0 -287 5 0 7 -5
3 -12 -4 -6 -3 -8 4 -4 6 3 13 2 17 -4 3 -5 0 -10 -7 -10 -10 0 -10 -2 1 -9 8
-5 20 -7 28 -4 7 3 13 1 13 -4 0 -5 37 -9 81 -8 72 0 82 -2 85 -18 2 -17 -7
-18 -137 -16 -77 1 -142 -1 -145 -4 -6 -5 -8 -46 -5 -84 1 -10 77 -13 345 -13
380 0 356 -5 356 66 0 38 3 37 -94 34 -48 -1 -71 2 -77 12 -6 10 -9 10 -9 1 0
-9 -18 -13 -55 -13 -53 0 -55 1 -45 20 10 18 20 20 92 19 74 -1 82 1 107 25
25 26 26 31 29 165 2 92 0 147 -8 161 -23 44 -63 50 -308 50 -205 0 -231 -2
-245 -18z m505 -12 c39 -18 46 -51 43 -180 -3 -147 -2 -137 -25 -160 -20 -20
-31 -21 -271 -19 -138 0 -248 3 -245 7 3 3 -1 14 -10 23 -13 15 -17 44 -19
141 -3 123 8 180 38 201 20 13 458 2 489 -13z m-204 -387 c-15 -2 -42 -2 -60
0 -18 2 -6 4 27 4 33 0 48 -2 33 -4z m117 -73 l0 -40 -247 0 -248 0 0 43 0 42
248 -3 247 -3 0 -39z m175 0 c0 -34 -3 -40 -21 -40 -17 0 -20 5 -17 32 l3 32
-64 -3 c-43 -2 -61 1 -56 8 3 6 38 11 81 11 l74 0 0 -40z m-72 3 c-15 -2 -42
-2 -60 0 -18 2 -6 4 27 4 33 0 48 -2 33 -4z m10 -22 c6 -1 12 -5 12 -11 0 -5
-25 -10 -56 -10 -48 0 -55 2 -45 14 7 9 25 13 44 11 18 -2 38 -4 45 -4z"/>
<path d="M9137 1562 c-19 -21 -22 -37 -25 -128 -5 -128 0 -149 35 -161 16 -6
112 -10 215 -9 173 1 188 3 215 22 28 21 28 22 31 142 3 137 -3 152 -66 152
-398 6 -382 7 -405 -18z m441 -8 c21 -14 22 -23 21 -112 0 -53 -3 -107 -6
-119 -9 -40 -53 -48 -253 -45 -231 3 -222 -3 -216 147 6 156 -11 145 229 145
168 0 206 -3 225 -16z"/>
<path d="M11565 1580 c77 -3 144 -2 150 2 5 4 -58 7 -140 6 l-150 -2 140 -6z"/>
<path d="M16083 1558 c0 -12 7 -13 39 -4 27 7 56 6 105 -3 38 -8 84 -13 103
-13 20 1 29 -2 22 -7 -9 -5 -5 -11 13 -19 21 -10 26 -18 23 -40 -2 -21 -14
-33 -58 -55 -51 -27 -62 -28 -140 -24 -92 5 -175 33 -187 63 -9 25 25 84 46
77 14 -4 14 -3 1 6 -12 9 -13 11 -1 11 8 0 11 3 7 7 -3 4 -25 -11 -47 -33 -29
-28 -39 -46 -37 -64 1 -14 0 -30 -3 -35 -3 -6 -3 -94 -1 -197 3 -149 7 -188
17 -188 8 0 35 -11 61 -25 26 -14 54 -25 63 -24 9 0 -2 8 -24 17 -116 51 -105
41 -101 97 2 27 4 75 5 106 l1 56 39 -19 c22 -11 72 -24 111 -29 85 -12 154 0
217 36 l42 25 3 -101 c3 -114 -2 -125 -75 -164 -32 -17 -48 -35 -32 -35 15 0
115 71 116 82 5 63 2 415 -3 412 -4 -3 -5 1 -3 8 8 20 -50 72 -71 64 -9 -3
-23 -1 -30 5 -8 6 -60 14 -117 16 -86 5 -104 3 -104 -9z m-18 -163 c149 -33
194 -30 280 15 l55 29 0 -34 c0 -95 -207 -145 -344 -82 -36 17 -60 34 -63 47
-3 11 -9 20 -14 20 -5 0 -9 8 -9 18 0 14 2 15 10 2 8 -12 10 -10 10 9 l0 24
23 -21 c12 -11 36 -24 52 -27z m323 -102 c-29 -36 -110 -63 -189 -63 -123 0
-209 35 -209 86 l0 23 56 -26 c30 -14 81 -27 112 -30 66 -6 171 17 211 46 26
19 26 19 29 0 2 -11 -2 -27 -10 -36z"/>
<path d="M11555 1520 l-130 -6 148 -2 c97 -1 146 1 142 8 -3 6 -12 9 -18 8 -7
-1 -70 -5 -142 -8z"/>
<path d="M13413 1513 c4 -6 35 -21 69 -33 35 -13 67 -27 72 -31 9 -8 -479 -3
-1004 11 -173 4 -319 4 -324 0 -5 -5 2 -11 15 -14 19 -4 1132 -27 1287 -26 24
0 41 -4 38 -9 -3 -5 -41 -22 -83 -37 -43 -16 -71 -30 -63 -31 20 -4 243 71
246 83 2 5 -47 26 -109 47 -156 53 -151 52 -144 40z"/>
<path d="M15404 1489 c-3 -5 -4 -9 -2 -9 2 0 28 -9 58 -19 67 -24 61 -25 -125
-41 -315 -26 -540 -52 -547 -63 -15 -23 -7 -28 40 -22 142 16 722 75 738 75
10 -1 -17 -19 -61 -42 -90 -45 -91 -46 -83 -54 4 -3 58 19 120 49 121 57 153
87 95 87 -18 0 -76 11 -130 24 -54 13 -100 19 -103 15z"/>
<path d="M11394 1390 c0 -52 1 -74 3 -47 2 26 2 68 0 95 -2 26 -3 4 -3 -48z"/>
<path d="M10714 1455 c10 -8 49 -25 85 -37 l66 -23 -200 -3 c-110 -2 -312 2
-450 7 -249 11 -264 9 -265 -21 0 -5 152 -8 338 -8 187 0 387 -3 447 -7 l108
-6 -49 -19 c-81 -31 -97 -38 -90 -45 10 -10 246 71 246 85 0 7 -6 14 -12 17
-7 2 -57 20 -110 39 -53 20 -105 36 -115 36 -17 -1 -17 -2 1 -15z"/>
<path d="M11646 1434 c-16 -15 -16 -18 -2 -32 12 -13 20 -13 41 -4 17 8 25 19
23 30 -4 23 -42 27 -62 6z m52 -12 c2 -7 -7 -12 -22 -12 -27 0 -35 15 -13 23
17 7 30 3 35 -11z"/>
<path d="M14396 1218 c-8 -33 -7 -148 2 -148 4 0 8 38 9 85 1 47 0 85 -2 85
-1 0 -5 -10 -9 -22z"/>
<path d="M14230 1176 c0 -44 -32 -102 -51 -91 -17 11 -9 36 14 45 l22 9 -22 0
c-12 1 -26 -6 -31 -15 -8 -15 -11 -15 -31 5 -37 37 -85 23 -79 -25 4 -35 37
-44 73 -20 20 13 24 13 29 1 7 -20 35 -19 58 2 17 15 19 15 33 -3 14 -18 14
-17 5 8 -5 15 -6 50 -3 78 4 34 2 50 -6 50 -6 0 -11 -18 -11 -44z m-104 -58
c4 -6 -1 -17 -11 -25 -22 -15 -25 -16 -44 -4 -12 8 -12 12 -2 25 16 19 47 21
57 4z"/>
<path d="M13925 1168 c-4 -18 -14 -45 -21 -60 -8 -15 -10 -29 -5 -32 5 -3 14
9 22 27 17 43 17 43 35 21 11 -13 17 -15 20 -6 8 19 24 14 24 -7 0 -26 10 -51
21 -51 5 0 4 12 -1 26 -6 14 -10 40 -10 59 0 44 -17 54 -31 18 l-11 -28 -14
33 c-8 17 -16 32 -18 32 -3 0 -8 -15 -11 -32z"/>
<path d="M14290 1130 c-23 -23 -26 -50 -8 -68 13 -13 88 -17 88 -4 0 4 -17 7
-37 7 -31 0 -39 4 -41 21 -3 18 1 21 24 16 28 -5 46 11 37 35 -8 19 -40 16
-63 -7z m42 -12 c-6 -6 -16 -7 -22 -3 -9 6 -9 9 1 16 17 10 34 0 21 -13z"/>
<path d="M9253 975 c-13 -22 -35 -56 -50 -74 -16 -19 -22 -31 -15 -27 7 4 26
11 43 16 26 8 31 6 38 -13 8 -20 8 -20 12 4 2 13 2 49 -1 79 l-5 55 -22 -40z
m15 -42 c-2 -10 -11 -19 -21 -21 -16 -3 -17 -1 -7 17 13 25 33 28 28 4z"/>
<path d="M9313 939 c-2 -39 1 -68 6 -64 5 3 7 14 4 25 -4 15 1 20 23 25 88 18
98 31 44 57 -75 35 -75 36 -77 -43z m91 21 c5 -5 -7 -12 -28 -16 -42 -7 -51
-2 -42 22 5 12 13 14 34 9 15 -3 31 -10 36 -15z"/>
<path d="M9473 992 c-26 -4 -32 -22 -8 -22 13 0 15 -8 9 -37 -3 -21 -13 -44
-22 -50 -13 -11 -11 -13 19 -13 19 0 41 5 49 10 12 7 8 10 -14 10 -27 0 -28 2
-22 31 3 17 6 37 6 45 0 7 10 14 23 16 20 3 21 4 2 9 -11 2 -30 3 -42 1z"/>
<path d="M11313 985 c-18 -8 -33 -19 -33 -24 0 -6 18 -20 40 -31 54 -28 52
-44 -5 -38 -48 6 -62 -7 -20 -18 68 -17 103 31 45 64 -16 9 -30 20 -30 23 0 4
17 14 38 22 23 10 30 16 17 16 -11 0 -35 -6 -52 -14z"/>
<path d="M16031 996 c2 -2 15 -9 29 -15 24 -11 24 -11 6 3 -16 13 -49 24 -35
12z"/>
<path d="M16170 971 c50 -22 78 -25 100 -11 10 7 3 8 -25 5 -29 -4 -35 -3 -20
4 17 7 14 9 -15 9 -19 -1 -46 2 -60 6 -14 4 -5 -2 20 -13z"/>
<path d="M16258 983 c7 -3 16 -2 19 1 4 3 -2 6 -13 5 -11 0 -14 -3 -6 -6z"/>
<path d="M11595 930 c3 -19 11 -41 19 -48 11 -11 18 -8 40 18 14 17 26 39 26
48 0 11 -7 5 -19 -14 -25 -41 -40 -50 -47 -27 -3 10 -10 27 -15 38 -7 15 -8
12 -4 -15z"/>
<path d="M16128 953 c6 -2 18 -2 25 0 6 3 1 5 -13 5 -14 0 -19 -2 -12 -5z"/>
<path d="M11418 933 c-26 -31 -29 -42 -18 -63 8 -15 21 -20 48 -20 47 1 69 18
74 55 3 26 7 30 31 28 15 -1 25 2 22 8 -9 13 -49 11 -63 -3 -7 -7 -12 -24 -12
-39 0 -31 -26 -45 -66 -35 -38 10 -32 41 9 41 25 0 32 4 32 20 0 26 -36 31
-57 8z m33 -16 c-13 -13 -26 -3 -16 12 3 6 11 8 17 5 6 -4 6 -10 -1 -17z"/>
<path d="M11718 933 c-26 -31 -29 -42 -18 -63 8 -15 21 -20 48 -20 47 1 69 18
74 55 3 26 7 30 31 28 15 -1 25 2 22 8 -9 13 -49 11 -63 -3 -7 -7 -12 -24 -12
-39 0 -31 -26 -45 -66 -35 -38 10 -32 41 9 41 25 0 32 4 32 20 0 26 -36 31
-57 8z m33 -16 c-13 -13 -26 -3 -16 12 3 6 11 8 17 5 6 -4 6 -10 -1 -17z"/>
<path d="M16287 903 c-4 -3 -7 -35 -7 -70 0 -69 9 -80 56 -69 19 5 25 12 22
29 -2 17 -11 23 -37 25 l-33 3 7 45 c6 43 5 50 -8 37z m60 -109 c5 -16 -34
-24 -47 -10 -5 7 -7 16 -3 20 10 10 46 3 50 -10z"/>
<path d="M15751 887 c10 -7 18 -33 21 -64 4 -47 3 -52 -16 -56 -12 -2 -5 -5
15 -6 45 -1 96 16 103 35 9 24 -22 61 -70 83 -49 23 -79 28 -53 8z m77 -37
c50 -31 40 -70 -19 -70 -13 0 -19 7 -20 23 0 12 -2 32 -3 45 -3 27 0 27 42 2z"/>
<path d="M16061 878 c0 -9 -10 -20 -21 -23 -11 -3 -20 -11 -20 -16 0 -6 9 -7
20 -4 18 6 20 2 20 -35 0 -27 5 -43 15 -46 19 -8 45 13 44 35 -1 13 -2 13 -6
-2 -9 -33 -38 -15 -38 23 0 28 5 35 25 41 l25 7 -27 1 c-16 1 -28 8 -31 19 -4
15 -5 15 -6 0z"/>
<path d="M16533 840 c-33 -13 -28 -25 17 -45 27 -12 37 -22 31 -28 -7 -7 -19
-7 -37 1 -20 10 -25 10 -22 0 6 -17 80 -17 85 -1 3 7 -12 20 -31 30 -40 19
-47 33 -16 33 11 0 20 5 20 10 0 12 -17 12 -47 0z"/>
<path d="M16640 820 c-23 -23 -26 -50 -8 -68 13 -13 88 -17 88 -4 0 4 -17 7
-37 7 -31 0 -39 4 -41 21 -3 18 1 21 24 16 28 -5 46 11 37 35 -8 19 -40 16
-63 -7z m42 -12 c-6 -6 -16 -7 -22 -3 -9 6 -9 9 1 16 17 10 34 0 21 -13z"/>
<path d="M15912 818 c-17 -17 -15 -47 3 -54 8 -4 26 1 39 10 21 13 26 13 36 1
27 -32 29 -13 3 20 -29 36 -59 45 -81 23z m46 -15 c-2 -10 -13 -19 -26 -21
-24 -4 -29 7 -10 26 18 18 40 15 36 -5z"/>
<path d="M16150 809 c-7 -11 -9 -27 -6 -35 7 -19 40 -18 56 1 12 14 15 14 30
0 29 -27 32 -16 4 20 -30 40 -67 47 -84 14z m58 -1 c-6 -16 -36 -34 -44 -26
-3 4 -4 14 -1 23 7 17 51 21 45 3z"/>
<path d="M16392 818 c-17 -17 -15 -47 3 -54 8 -4 26 1 39 10 21 13 26 13 36 1
27 -32 29 -13 3 20 -29 36 -59 45 -81 23z m46 -15 c-2 -10 -13 -19 -26 -21
-24 -4 -29 7 -10 26 18 18 40 15 36 -5z"/>
<path d="M8746 438 c-3 -13 -6 -33 -6 -45 0 -17 -6 -23 -24 -23 -28 0 -49 -22
-44 -47 4 -23 41 -29 58 -8 11 14 14 14 24 0 8 -12 11 2 11 59 0 77 -8 104
-19 64z m-18 -95 c-2 -10 -14 -19 -26 -21 -21 -3 -22 -1 -12 17 13 26 43 28
38 4z"/>
<path d="M9686 438 c-3 -13 -6 -33 -6 -45 0 -17 -6 -23 -24 -23 -28 0 -49 -22
-44 -47 4 -23 41 -29 58 -8 11 14 14 14 24 0 8 -12 11 2 11 59 0 77 -8 104
-19 64z m-18 -95 c-2 -10 -14 -19 -26 -21 -21 -3 -22 -1 -12 17 13 26 43 28
38 4z"/>
<path d="M9946 444 c-9 -8 -16 -26 -16 -39 0 -13 -6 -26 -12 -29 -10 -5 -10
-7 0 -12 6 -3 12 -16 12 -29 0 -13 5 -27 10 -30 6 -4 10 5 10 19 0 21 5 26 26
26 14 0 23 4 19 10 -3 6 -17 10 -31 10 -16 0 -24 6 -24 18 0 28 25 56 44 49 9
-4 16 -2 16 2 0 7 -23 21 -35 21 -2 0 -11 -7 -19 -16z"/>
<path d="M8920 413 c0 -14 -6 -23 -15 -23 -8 0 -15 -4 -15 -10 0 -5 7 -10 15
-10 10 0 15 -10 15 -27 0 -39 14 -56 38 -49 21 7 39 36 22 36 -6 0 -10 -4 -10
-10 0 -5 -7 -10 -15 -10 -10 0 -15 10 -15 33 0 27 5 35 28 44 l27 11 -27 1
c-15 1 -32 9 -37 19 -9 15 -10 15 -11 -5z"/>
<path d="M9240 413 c0 -14 -6 -23 -15 -23 -8 0 -15 -4 -15 -10 0 -5 7 -10 15
-10 10 0 15 -10 15 -27 0 -39 14 -56 38 -49 21 7 39 36 22 36 -6 0 -10 -4 -10
-10 0 -5 -7 -10 -15 -10 -10 0 -15 10 -15 33 0 27 5 35 28 44 l27 11 -27 1
c-15 1 -32 9 -37 19 -9 15 -10 15 -11 -5z"/>
<path d="M10726 412 c-3 -6 -1 -14 5 -17 15 -10 25 3 12 16 -7 7 -13 7 -17 1z"/>
<path d="M8807 362 c-20 -22 -22 -43 -5 -60 14 -14 64 -16 73 -2 4 6 -5 7 -23
4 -19 -4 -32 -1 -41 10 -12 14 -10 16 12 16 27 0 52 23 42 40 -10 16 -40 12
-58 -8z m34 -15 c-13 -13 -26 -3 -16 12 3 6 11 8 17 5 6 -4 6 -10 -1 -17z"/>
<path d="M9027 362 c-20 -22 -22 -43 -5 -60 14 -14 64 -16 73 -2 4 6 -5 7 -23
4 -19 -4 -32 -1 -41 10 -12 14 -10 16 12 16 27 0 52 23 42 40 -10 16 -40 12
-58 -8z m34 -15 c-13 -13 -26 -3 -16 12 3 6 11 8 17 5 6 -4 6 -10 -1 -17z"/>
<path d="M9125 360 c-15 -16 -17 -25 -9 -38 12 -18 84 -30 84 -13 0 5 -15 11
-32 13 -43 4 -47 34 -5 31 18 -1 27 2 24 10 -6 21 -42 19 -62 -3z"/>
<path d="M9340 366 c-16 -21 -9 -60 13 -64 29 -6 64 6 71 24 15 39 -57 72 -84
40z m68 -27 c2 -10 -6 -19 -20 -22 -27 -8 -43 5 -34 28 8 21 50 16 54 -6z"/>
<path d="M9450 338 c0 -44 17 -52 22 -11 2 17 12 32 28 40 24 13 24 13 -12 10
-37 -2 -38 -3 -38 -39z"/>
<path d="M9747 362 c-20 -22 -22 -43 -5 -60 14 -14 64 -16 73 -2 4 6 -5 7 -23
4 -19 -4 -32 -1 -41 10 -12 14 -10 16 12 16 27 0 52 23 42 40 -10 16 -40 12
-58 -8z m34 -15 c-13 -13 -26 -3 -16 12 3 6 11 8 17 5 6 -4 6 -10 -1 -17z"/>
<path d="M10020 338 c0 -44 17 -52 22 -11 2 17 12 32 28 40 24 13 24 13 -12
10 -37 -2 -38 -3 -38 -39z"/>
<path d="M10104 355 c-13 -20 -15 -31 -7 -44 12 -20 71 -27 87 -10 8 9 5 10
-16 5 -28 -6 -58 1 -58 14 0 5 12 10 28 12 19 2 27 9 27 23 0 32 -40 32 -61 0z
m51 6 c7 -12 -12 -24 -25 -16 -11 7 -4 25 10 25 5 0 11 -4 15 -9z"/>
<path d="M10215 360 c-15 -16 -17 -25 -9 -38 13 -20 62 -28 77 -13 8 8 0 11
-27 11 -30 0 -37 3 -34 18 3 12 12 16 32 15 17 -1 26 2 23 10 -6 21 -42 19
-62 -3z"/>
<path d="M10363 350 c-14 -38 -48 -42 -41 -5 3 14 1 25 -3 25 -12 0 -11 -57 1
-65 5 -3 18 -1 28 4 13 7 22 7 30 -1 9 -9 12 -2 12 30 0 49 -11 54 -27 12z"/>
<path d="M10424 355 c-13 -20 -15 -31 -7 -44 12 -20 71 -27 87 -10 8 9 5 10
-16 5 -28 -6 -58 1 -58 14 0 5 12 10 28 12 19 2 27 9 27 23 0 32 -40 32 -61 0z
m51 6 c7 -12 -12 -24 -25 -16 -11 7 -4 25 10 25 5 0 11 -4 15 -9z"/>
<path d="M10560 365 c-11 -13 -15 -13 -21 -3 -6 8 -9 0 -9 -22 l1 -35 18 23
c23 27 41 28 41 3 0 -11 5 -23 10 -26 10 -6 7 21 -6 63 -5 16 -19 15 -34 -3z"/>
<path d="M10642 368 c-17 -17 -15 -55 4 -62 25 -9 64 -7 64 4 0 6 -13 10 -29
10 -34 0 -44 10 -31 29 5 8 17 12 30 8 14 -3 20 -1 17 6 -5 17 -40 20 -55 5z"/>
<path d="M10786 351 c-31 -34 4 -67 44 -41 9 5 19 5 27 -2 20 -16 22 -7 7 30
-16 37 -51 43 -78 13z m52 -3 c-6 -16 -36 -34 -44 -25 -9 9 15 37 33 37 8 0
13 -5 11 -12z"/>
<path d="M10731 348 c0 -7 4 -22 9 -33 7 -17 9 -15 9 13 1 17 -3 32 -9 32 -5
0 -10 -6 -9 -12z"/>
</g>
</svg>
